<svg id="svg" version="1.1" xmlns="http://www.w3.org/2000/svg" xmlns:xlink="http://www.w3.org/1999/xlink" width="400" height="101.57068062827224" viewBox="0, 0, 400,101.57068062827224"><g id="svgg"><path id="path0" d="M72.000 21.000 C 72.000 21.109,68.583 21.167,62.083 21.167 C 55.583 21.167,52.167 21.224,52.167 21.333 C 52.167 21.442,49.722 21.500,45.167 21.500 C 40.611 21.500,38.167 21.558,38.167 21.667 C 38.167 21.774,36.337 21.833,33.010 21.833 C 29.752 21.833,27.815 21.895,27.750 22.000 C 27.693 22.092,27.201 22.167,26.657 22.167 C 26.108 22.167,25.667 22.241,25.667 22.333 C 25.667 22.431,25.083 22.500,24.250 22.500 C 23.417 22.500,22.833 22.569,22.833 22.667 C 22.833 22.759,22.389 22.833,21.833 22.833 C 21.278 22.833,20.833 22.907,20.833 23.000 C 20.833 23.096,20.306 23.167,19.583 23.167 C 18.861 23.167,18.333 23.237,18.333 23.333 C 18.333 23.425,18.033 23.500,17.667 23.500 C 17.300 23.500,17.000 23.575,17.000 23.667 C 17.000 23.758,16.587 23.833,16.083 23.833 C 15.579 23.833,15.167 23.908,15.167 24.000 C 15.167 24.092,14.942 24.167,14.667 24.167 C 14.333 24.167,14.167 24.250,14.167 24.417 C 14.167 24.556,14.019 24.667,13.833 24.667 C 13.650 24.667,13.500 24.742,13.500 24.833 C 13.500 24.925,13.313 25.000,13.083 25.000 C 12.854 25.000,12.667 25.075,12.667 25.167 C 12.667 25.258,12.517 25.333,12.333 25.333 C 12.150 25.333,12.000 25.408,12.000 25.500 C 12.000 25.592,11.882 25.667,11.737 25.667 C 11.592 25.667,11.186 25.967,10.833 26.333 C 10.481 26.700,10.091 27.000,9.967 27.000 C 9.842 27.000,9.632 27.150,9.500 27.333 C 9.368 27.517,9.164 27.667,9.047 27.667 C 8.929 27.667,8.833 27.734,8.833 27.816 C 8.833 27.899,8.458 28.349,8.000 28.817 C 7.542 29.285,7.167 29.764,7.167 29.881 C 7.167 29.998,7.017 30.201,6.833 30.333 C 6.650 30.465,6.500 30.707,6.500 30.870 C 6.500 31.033,6.425 31.167,6.333 31.167 C 6.242 31.167,6.167 31.312,6.167 31.490 C 6.167 31.668,6.092 31.860,6.000 31.917 C 5.908 31.973,5.833 32.165,5.833 32.343 C 5.833 32.521,5.721 32.667,5.583 32.667 C 5.417 32.667,5.333 32.833,5.333 33.167 C 5.333 33.442,5.258 33.667,5.167 33.667 C 5.075 33.667,5.000 33.892,5.000 34.167 C 5.000 34.442,4.925 34.667,4.833 34.667 C 4.742 34.667,4.667 35.079,4.667 35.583 C 4.667 36.087,4.592 36.500,4.500 36.500 C 4.401 36.500,4.333 37.139,4.333 38.083 C 4.333 39.028,4.266 39.667,4.167 39.667 C 4.067 39.667,4.000 40.333,4.000 41.333 C 4.000 42.333,4.067 43.000,4.167 43.000 C 4.263 43.000,4.333 43.528,4.333 44.250 C 4.333 44.972,4.404 45.500,4.500 45.500 C 4.592 45.500,4.667 45.725,4.667 46.000 C 4.667 46.275,4.742 46.500,4.833 46.500 C 4.925 46.500,5.000 46.762,5.000 47.083 C 5.000 47.404,5.075 47.667,5.167 47.667 C 5.258 47.667,5.333 47.892,5.333 48.167 C 5.333 48.500,5.417 48.667,5.583 48.667 C 5.750 48.667,5.833 48.833,5.833 49.167 C 5.833 49.442,5.908 49.667,6.000 49.667 C 6.092 49.667,6.167 49.817,6.167 50.000 C 6.167 50.183,6.242 50.333,6.333 50.333 C 6.425 50.333,6.500 50.521,6.500 50.750 C 6.500 50.979,6.575 51.167,6.667 51.167 C 6.758 51.167,6.833 51.317,6.833 51.500 C 6.833 51.683,6.908 51.833,7.000 51.833 C 7.092 51.833,7.167 51.953,7.167 52.100 C 7.167 52.246,7.392 52.576,7.667 52.833 C 7.942 53.090,8.167 53.389,8.167 53.497 C 8.167 53.606,8.429 53.949,8.750 54.261 C 9.071 54.573,9.333 54.905,9.333 55.000 C 9.333 55.230,11.444 57.333,11.675 57.333 C 11.775 57.333,12.180 57.671,12.575 58.083 C 12.970 58.496,13.385 58.833,13.496 58.833 C 13.608 58.833,13.910 59.058,14.167 59.333 C 14.424 59.608,14.737 59.833,14.863 59.833 C 14.990 59.833,15.201 59.983,15.333 60.167 C 15.465 60.350,15.707 60.500,15.870 60.500 C 16.033 60.500,16.167 60.575,16.167 60.667 C 16.167 60.758,16.338 60.833,16.547 60.833 C 16.755 60.833,17.035 60.983,17.167 61.167 C 17.299 61.350,17.508 61.500,17.632 61.500 C 17.901 61.500,18.333 61.904,18.333 62.155 C 18.333 62.253,18.558 62.333,18.833 62.333 C 19.108 62.333,19.333 62.408,19.333 62.500 C 19.333 62.592,19.483 62.667,19.667 62.667 C 19.850 62.667,20.000 62.742,20.000 62.833 C 20.000 62.925,20.188 63.000,20.417 63.000 C 20.646 63.000,20.833 63.075,20.833 63.167 C 20.833 63.258,20.983 63.333,21.167 63.333 C 21.350 63.333,21.500 63.408,21.500 63.500 C 21.500 63.592,21.725 63.667,22.000 63.667 C 22.275 63.667,22.500 63.742,22.500 63.833 C 22.500 63.925,22.725 64.000,23.000 64.000 C 23.275 64.000,23.500 64.075,23.500 64.167 C 23.500 64.258,23.837 64.333,24.250 64.333 C 24.662 64.333,25.000 64.408,25.000 64.500 C 25.000 64.592,25.150 64.667,25.333 64.667 C 25.517 64.667,25.667 64.742,25.667 64.833 C 25.667 64.925,25.967 65.000,26.333 65.000 C 26.700 65.000,27.000 65.075,27.000 65.167 C 27.000 65.258,27.337 65.333,27.750 65.333 C 28.162 65.333,28.500 65.408,28.500 65.500 C 28.500 65.592,28.875 65.667,29.333 65.667 C 29.792 65.667,30.167 65.592,30.167 65.500 C 30.167 65.408,30.392 65.333,30.667 65.333 C 30.942 65.333,31.167 65.258,31.167 65.167 C 31.167 65.075,31.243 65.000,31.336 65.000 C 31.613 65.000,34.333 62.194,34.333 61.907 C 34.333 61.563,34.735 61.167,35.084 61.167 C 35.236 61.167,35.648 60.867,36.000 60.500 C 36.352 60.133,36.759 59.833,36.904 59.833 C 37.048 59.833,37.167 59.758,37.167 59.667 C 37.167 59.575,37.317 59.500,37.500 59.500 C 37.683 59.500,37.833 59.425,37.833 59.333 C 37.833 59.242,38.096 59.167,38.417 59.167 C 38.737 59.167,39.000 59.092,39.000 59.000 C 39.000 58.908,39.225 58.833,39.500 58.833 C 39.775 58.833,40.000 58.758,40.000 58.667 C 40.000 58.575,40.150 58.500,40.333 58.500 C 40.519 58.500,40.667 58.389,40.667 58.250 C 40.667 58.069,40.852 58.000,41.333 58.000 C 41.700 58.000,42.000 57.925,42.000 57.833 C 42.000 57.742,42.337 57.667,42.750 57.667 C 43.163 57.667,43.500 57.592,43.500 57.500 C 43.500 57.403,44.056 57.333,44.833 57.333 C 45.611 57.333,46.167 57.264,46.167 57.167 C 46.167 57.063,47.111 57.000,48.667 57.000 C 50.222 57.000,51.167 57.063,51.167 57.167 C 51.167 57.266,51.806 57.333,52.750 57.333 C 53.694 57.333,54.333 57.401,54.333 57.500 C 54.333 57.597,54.889 57.667,55.667 57.667 C 56.444 57.667,57.000 57.736,57.000 57.833 C 57.000 57.931,57.583 58.000,58.417 58.000 C 59.565 58.000,59.833 58.047,59.833 58.250 C 59.833 58.462,60.259 58.500,62.667 58.500 C 64.444 58.500,65.500 58.562,65.500 58.667 C 65.500 58.758,65.800 58.833,66.167 58.833 C 66.533 58.833,66.833 58.758,66.833 58.667 C 66.833 58.558,69.141 58.500,73.422 58.500 C 79.125 58.500,80.023 58.466,80.106 58.250 C 80.184 58.048,80.567 58.000,82.101 58.000 C 83.256 58.000,84.000 57.935,84.000 57.833 C 84.000 57.733,84.694 57.667,85.750 57.667 C 86.806 57.667,87.500 57.601,87.500 57.500 C 87.500 57.403,88.056 57.333,88.833 57.333 C 89.611 57.333,90.167 57.264,90.167 57.167 C 90.167 57.070,90.694 57.000,91.417 57.000 C 92.139 57.000,92.667 56.930,92.667 56.833 C 92.667 56.733,93.361 56.667,94.417 56.667 C 95.472 56.667,96.167 56.601,96.167 56.500 C 96.167 56.402,96.750 56.333,97.583 56.333 C 98.417 56.333,99.000 56.265,99.000 56.167 C 99.000 56.069,99.556 56.000,100.333 56.000 C 101.111 56.000,101.667 55.931,101.667 55.833 C 101.667 55.737,102.194 55.667,102.917 55.667 C 103.639 55.667,104.167 55.596,104.167 55.500 C 104.167 55.402,104.750 55.333,105.583 55.333 C 106.417 55.333,107.000 55.265,107.000 55.167 C 107.000 55.069,107.583 55.000,108.417 55.000 C 109.250 55.000,109.833 54.931,109.833 54.833 C 109.833 54.742,110.208 54.667,110.667 54.667 C 111.296 54.667,111.500 54.606,111.500 54.417 C 111.500 54.236,111.685 54.167,112.167 54.167 C 112.533 54.167,112.833 54.092,112.833 54.000 C 112.833 53.906,113.306 53.833,113.917 53.833 C 114.528 53.833,115.000 53.761,115.000 53.667 C 115.000 53.575,115.412 53.500,115.917 53.500 C 116.421 53.500,116.833 53.425,116.833 53.333 C 116.833 53.238,117.333 53.167,118.000 53.167 C 118.667 53.167,119.167 53.095,119.167 53.000 C 119.167 52.902,119.750 52.833,120.583 52.833 C 121.417 52.833,122.000 52.765,122.000 52.667 C 122.000 52.564,122.806 52.500,124.083 52.500 C 125.361 52.500,126.167 52.436,126.167 52.333 C 126.167 52.234,126.806 52.167,127.750 52.167 C 128.694 52.167,129.333 52.099,129.333 52.000 C 129.333 51.894,130.611 51.833,132.833 51.833 C 135.056 51.833,136.333 51.894,136.333 52.000 C 136.333 52.105,137.417 52.167,139.250 52.167 C 141.083 52.167,142.167 52.229,142.167 52.333 C 142.167 52.425,142.429 52.500,142.750 52.500 C 143.071 52.500,143.333 52.575,143.333 52.667 C 143.333 52.758,143.483 52.833,143.667 52.833 C 143.850 52.833,144.000 52.908,144.000 53.000 C 144.000 53.092,144.208 53.167,144.463 53.167 C 144.735 53.167,145.026 53.304,145.167 53.500 C 145.299 53.683,145.540 53.833,145.703 53.833 C 145.867 53.833,146.000 53.908,146.000 54.000 C 146.000 54.092,146.188 54.167,146.417 54.167 C 146.646 54.167,146.833 54.247,146.833 54.345 C 146.833 54.580,147.259 55.000,147.496 55.000 C 147.599 55.000,148.201 55.525,148.833 56.167 C 149.466 56.808,150.030 57.333,150.087 57.333 C 150.305 57.333,150.667 57.823,150.667 58.118 C 150.667 58.288,150.817 58.535,151.000 58.667 C 151.183 58.799,151.333 59.024,151.333 59.167 C 151.333 59.310,151.483 59.535,151.667 59.667 C 151.850 59.799,152.000 60.040,152.000 60.203 C 152.000 60.367,152.075 60.500,152.167 60.500 C 152.258 60.500,152.333 60.633,152.333 60.797 C 152.333 60.960,152.483 61.201,152.667 61.333 C 152.883 61.490,153.000 61.765,153.000 62.120 C 153.000 62.421,153.075 62.667,153.167 62.667 C 153.258 62.667,153.333 62.817,153.333 63.000 C 153.333 63.185,153.444 63.333,153.583 63.333 C 153.750 63.333,153.833 63.500,153.833 63.833 C 153.833 64.108,153.908 64.333,154.000 64.333 C 154.092 64.333,154.167 64.483,154.167 64.667 C 154.167 64.850,154.242 65.000,154.333 65.000 C 154.425 65.000,154.500 65.150,154.500 65.333 C 154.500 65.517,154.575 65.667,154.667 65.667 C 154.758 65.667,154.833 66.004,154.833 66.417 C 154.833 66.829,154.908 67.167,155.000 67.167 C 155.092 67.167,155.167 67.392,155.167 67.667 C 155.167 67.942,155.242 68.167,155.333 68.167 C 155.425 68.167,155.500 68.504,155.500 68.917 C 155.500 69.329,155.575 69.667,155.667 69.667 C 155.758 69.667,155.833 69.892,155.833 70.167 C 155.833 70.442,155.908 70.667,156.000 70.667 C 156.092 70.667,156.167 70.967,156.167 71.333 C 156.167 71.700,156.242 72.000,156.333 72.000 C 156.425 72.000,156.500 72.225,156.500 72.500 C 156.500 72.775,156.575 73.000,156.667 73.000 C 156.758 73.000,156.833 73.262,156.833 73.583 C 156.833 73.904,156.908 74.167,157.000 74.167 C 157.092 74.167,157.167 74.467,157.167 74.833 C 157.167 75.315,157.236 75.500,157.417 75.500 C 157.597 75.500,157.667 75.685,157.667 76.167 C 157.667 76.533,157.742 76.833,157.833 76.833 C 157.925 76.833,158.000 77.171,158.000 77.583 C 158.000 77.996,158.075 78.333,158.167 78.333 C 158.258 78.333,158.333 78.633,158.333 79.000 C 158.333 79.367,158.408 79.667,158.500 79.667 C 158.592 79.667,158.667 79.988,158.667 80.380 C 158.667 80.902,158.756 81.157,159.000 81.333 C 159.183 81.465,159.333 81.707,159.333 81.870 C 159.333 82.089,159.465 82.167,159.833 82.167 C 160.108 82.167,160.333 82.242,160.333 82.333 C 160.333 82.425,160.483 82.500,160.667 82.500 C 160.850 82.500,161.000 82.425,161.000 82.333 C 161.000 82.242,161.112 82.167,161.250 82.167 C 161.387 82.167,161.500 82.242,161.500 82.333 C 161.500 82.425,161.875 82.500,162.333 82.500 C 162.792 82.500,163.167 82.575,163.167 82.667 C 163.167 82.773,164.611 82.833,167.167 82.833 C 169.722 82.833,171.167 82.894,171.167 83.000 C 171.167 83.106,172.444 83.167,174.667 83.167 C 176.889 83.167,178.167 83.228,178.167 83.333 C 178.167 83.438,179.278 83.500,181.167 83.500 C 183.056 83.500,184.167 83.562,184.167 83.667 C 184.167 83.772,185.444 83.833,187.667 83.833 C 189.889 83.833,191.167 83.894,191.167 84.000 C 191.167 84.109,194.167 84.167,199.833 84.167 C 205.500 84.167,208.500 84.224,208.500 84.333 C 208.500 84.441,210.194 84.500,213.250 84.500 C 217.361 84.500,218.000 84.534,218.000 84.750 C 218.000 84.939,218.204 85.000,218.833 85.000 C 219.463 85.000,219.667 84.939,219.667 84.750 C 219.667 84.532,220.463 84.500,225.833 84.500 C 229.833 84.500,232.000 84.441,232.000 84.333 C 232.000 84.224,235.528 84.167,242.250 84.167 C 248.972 84.167,252.500 84.109,252.500 84.000 C 252.500 83.891,255.361 83.833,260.750 83.833 C 266.139 83.833,269.000 83.776,269.000 83.667 C 269.000 83.562,270.139 83.500,272.083 83.500 C 274.028 83.500,275.167 83.438,275.167 83.333 C 275.167 83.230,276.056 83.167,277.500 83.167 C 278.944 83.167,279.833 83.103,279.833 83.000 C 279.833 82.899,280.583 82.833,281.750 82.833 C 282.917 82.833,283.667 82.768,283.667 82.667 C 283.667 82.569,284.222 82.500,285.000 82.500 C 285.778 82.500,286.333 82.431,286.333 82.333 C 286.333 82.235,286.917 82.167,287.750 82.167 C 288.583 82.167,289.167 82.098,289.167 82.000 C 289.167 81.902,289.750 81.833,290.583 81.833 C 291.417 81.833,292.000 81.765,292.000 81.667 C 292.000 81.571,292.500 81.500,293.167 81.500 C 293.833 81.500,294.333 81.429,294.333 81.333 C 294.333 81.237,294.861 81.167,295.583 81.167 C 296.583 81.167,296.833 81.117,296.833 80.917 C 296.833 80.717,297.083 80.667,298.083 80.667 C 298.806 80.667,299.333 80.596,299.333 80.500 C 299.333 80.405,299.833 80.333,300.500 80.333 C 301.167 80.333,301.667 80.262,301.667 80.167 C 301.667 80.070,302.194 80.000,302.917 80.000 C 303.639 80.000,304.167 79.930,304.167 79.833 C 304.167 79.737,304.694 79.667,305.417 79.667 C 306.139 79.667,306.667 79.596,306.667 79.500 C 306.667 79.405,307.167 79.333,307.833 79.333 C 308.500 79.333,309.000 79.262,309.000 79.167 C 309.000 79.073,309.472 79.000,310.083 79.000 C 310.694 79.000,311.167 78.927,311.167 78.833 C 311.167 78.739,311.639 78.667,312.250 78.667 C 312.861 78.667,313.333 78.594,313.333 78.500 C 313.333 78.407,313.778 78.333,314.333 78.333 C 314.889 78.333,315.333 78.259,315.333 78.167 C 315.333 78.073,315.806 78.000,316.417 78.000 C 317.028 78.000,317.500 77.927,317.500 77.833 C 317.500 77.742,317.875 77.667,318.333 77.667 C 318.792 77.667,319.167 77.592,319.167 77.500 C 319.167 77.406,319.639 77.333,320.250 77.333 C 321.102 77.333,321.333 77.280,321.333 77.083 C 321.333 76.894,321.537 76.833,322.167 76.833 C 322.625 76.833,323.000 76.758,323.000 76.667 C 323.000 76.575,323.412 76.500,323.917 76.500 C 324.421 76.500,324.833 76.425,324.833 76.333 C 324.833 76.242,325.208 76.167,325.667 76.167 C 326.125 76.167,326.500 76.092,326.500 76.000 C 326.500 75.908,326.912 75.833,327.417 75.833 C 327.921 75.833,328.333 75.758,328.333 75.667 C 328.333 75.574,328.778 75.500,329.333 75.500 C 329.889 75.500,330.333 75.426,330.333 75.333 C 330.333 75.242,330.671 75.167,331.083 75.167 C 331.496 75.167,331.833 75.092,331.833 75.000 C 331.833 74.908,332.208 74.833,332.667 74.833 C 333.125 74.833,333.500 74.758,333.500 74.667 C 333.500 74.575,333.912 74.500,334.417 74.500 C 334.921 74.500,335.333 74.425,335.333 74.333 C 335.333 74.242,335.633 74.167,336.000 74.167 C 336.367 74.167,336.667 74.092,336.667 74.000 C 336.667 73.908,337.042 73.833,337.500 73.833 C 337.958 73.833,338.333 73.758,338.333 73.667 C 338.333 73.575,338.671 73.500,339.083 73.500 C 339.639 73.500,339.833 73.435,339.833 73.250 C 339.833 73.083,340.000 73.000,340.333 73.000 C 340.608 73.000,340.833 72.925,340.833 72.833 C 340.833 72.742,341.133 72.667,341.500 72.667 C 341.867 72.667,342.167 72.592,342.167 72.500 C 342.167 72.408,342.429 72.333,342.750 72.333 C 343.071 72.333,343.333 72.258,343.333 72.167 C 343.333 72.075,343.633 72.000,344.000 72.000 C 344.367 72.000,344.667 71.925,344.667 71.833 C 344.667 71.742,344.892 71.667,345.167 71.667 C 345.442 71.667,345.667 71.592,345.667 71.500 C 345.667 71.408,346.004 71.333,346.417 71.333 C 346.829 71.333,347.167 71.258,347.167 71.167 C 347.167 71.075,347.392 71.000,347.667 71.000 C 347.942 71.000,348.167 70.925,348.167 70.833 C 348.167 70.742,348.392 70.667,348.667 70.667 C 348.942 70.667,349.167 70.592,349.167 70.500 C 349.167 70.408,349.429 70.333,349.750 70.333 C 350.071 70.333,350.333 70.258,350.333 70.167 C 350.333 70.075,350.558 70.000,350.833 70.000 C 351.108 70.000,351.333 69.925,351.333 69.833 C 351.333 69.742,351.558 69.667,351.833 69.667 C 352.167 69.667,352.333 69.583,352.333 69.417 C 352.333 69.250,352.500 69.167,352.833 69.167 C 353.108 69.167,353.333 69.092,353.333 69.000 C 353.333 68.908,353.596 68.833,353.917 68.833 C 354.238 68.833,354.500 68.758,354.500 68.667 C 354.500 68.575,354.725 68.500,355.000 68.500 C 355.275 68.500,355.500 68.425,355.500 68.333 C 355.500 68.242,355.725 68.167,356.000 68.167 C 356.275 68.167,356.500 68.092,356.500 68.000 C 356.500 67.908,356.762 67.833,357.083 67.833 C 357.404 67.833,357.667 67.758,357.667 67.667 C 357.667 67.575,357.817 67.500,358.000 67.500 C 358.183 67.500,358.333 67.425,358.333 67.333 C 358.333 67.242,358.558 67.167,358.833 67.167 C 359.108 67.167,359.333 67.092,359.333 67.000 C 359.333 66.908,359.558 66.833,359.833 66.833 C 360.108 66.833,360.333 66.758,360.333 66.667 C 360.333 66.575,360.483 66.500,360.667 66.500 C 360.850 66.500,361.000 66.425,361.000 66.333 C 361.000 66.242,361.262 66.167,361.583 66.167 C 361.991 66.167,362.167 66.091,362.167 65.917 C 362.167 65.750,362.333 65.667,362.667 65.667 C 362.942 65.667,363.167 65.592,363.167 65.500 C 363.167 65.408,363.392 65.333,363.667 65.333 C 363.942 65.333,364.167 65.258,364.167 65.167 C 364.167 65.075,364.354 65.000,364.583 65.000 C 364.813 65.000,365.000 64.925,365.000 64.833 C 365.000 64.742,365.225 64.667,365.500 64.667 C 365.775 64.667,366.000 64.592,366.000 64.500 C 366.000 64.408,366.150 64.333,366.333 64.333 C 366.517 64.333,366.667 64.258,366.667 64.167 C 366.667 64.075,366.817 64.000,367.000 64.000 C 367.183 64.000,367.333 63.925,367.333 63.833 C 367.333 63.742,367.558 63.667,367.833 63.667 C 368.108 63.667,368.333 63.592,368.333 63.500 C 368.333 63.408,368.596 63.333,368.917 63.333 C 369.238 63.333,369.500 63.258,369.500 63.167 C 369.500 63.075,369.650 63.000,369.833 63.000 C 370.017 63.000,370.167 62.925,370.167 62.833 C 370.167 62.742,370.392 62.667,370.667 62.667 C 370.942 62.667,371.167 62.592,371.167 62.500 C 371.167 62.408,371.317 62.333,371.500 62.333 C 371.685 62.333,371.833 62.222,371.833 62.083 C 371.833 61.928,371.991 61.833,372.250 61.833 C 372.479 61.833,372.667 61.758,372.667 61.667 C 372.667 61.575,372.892 61.500,373.167 61.500 C 373.442 61.500,373.667 61.425,373.667 61.333 C 373.667 61.242,373.817 61.167,374.000 61.167 C 374.183 61.167,374.333 61.092,374.333 61.000 C 374.333 60.908,374.483 60.833,374.667 60.833 C 374.850 60.833,375.000 60.758,375.000 60.667 C 375.000 60.575,375.150 60.500,375.333 60.500 C 375.517 60.500,375.667 60.425,375.667 60.333 C 375.667 60.242,375.929 60.167,376.250 60.167 C 376.571 60.167,376.833 60.092,376.833 60.000 C 376.833 59.908,376.983 59.833,377.167 59.833 C 377.350 59.833,377.500 59.758,377.500 59.667 C 377.500 59.575,377.650 59.500,377.833 59.500 C 378.017 59.500,378.167 59.425,378.167 59.333 C 378.167 59.242,378.317 59.167,378.500 59.167 C 378.683 59.167,378.833 59.092,378.833 59.000 C 378.833 58.908,378.983 58.833,379.167 58.833 C 379.350 58.833,379.500 58.758,379.500 58.667 C 379.500 58.575,379.762 58.500,380.083 58.500 C 380.404 58.500,380.667 58.420,380.667 58.321 C 380.667 58.003,381.132 57.667,381.571 57.667 C 381.807 57.667,382.000 57.592,382.000 57.500 C 382.000 57.408,382.150 57.333,382.333 57.333 C 382.517 57.333,382.667 57.258,382.667 57.167 C 382.667 57.075,382.854 57.000,383.083 57.000 C 383.313 57.000,383.500 56.925,383.500 56.833 C 383.500 56.742,383.650 56.667,383.833 56.667 C 384.017 56.667,384.167 56.592,384.167 56.500 C 384.167 56.408,384.317 56.333,384.500 56.333 C 384.683 56.333,384.833 56.258,384.833 56.167 C 384.833 56.075,384.983 56.000,385.167 56.000 C 385.350 56.000,385.500 55.925,385.500 55.833 C 385.500 55.742,385.650 55.667,385.833 55.667 C 386.017 55.667,386.167 55.592,386.167 55.500 C 386.167 55.408,386.317 55.333,386.500 55.333 C 386.683 55.333,386.833 55.258,386.833 55.167 C 386.833 55.075,387.021 55.000,387.250 55.000 C 387.479 55.000,387.667 54.925,387.667 54.833 C 387.667 54.742,387.817 54.667,388.000 54.667 C 388.185 54.667,388.333 54.556,388.333 54.417 C 388.333 54.279,388.467 54.167,388.630 54.167 C 388.793 54.167,389.035 54.017,389.167 53.833 C 389.299 53.650,389.540 53.500,389.703 53.500 C 389.867 53.500,390.000 53.425,390.000 53.333 C 390.000 53.242,390.171 53.167,390.380 53.167 C 390.589 53.167,390.868 53.017,391.000 52.833 C 391.132 52.650,391.374 52.500,391.537 52.500 C 391.700 52.500,391.833 52.425,391.833 52.333 C 391.833 52.242,391.967 52.167,392.130 52.167 C 392.293 52.167,392.535 52.017,392.667 51.833 C 392.799 51.650,393.040 51.500,393.203 51.500 C 393.367 51.500,393.500 51.425,393.500 51.333 C 393.500 51.242,393.650 51.167,393.833 51.167 C 394.019 51.167,394.167 51.056,394.167 50.917 C 394.167 50.779,394.249 50.667,394.350 50.667 C 394.451 50.667,394.743 50.442,395.000 50.167 C 395.257 49.892,395.570 49.667,395.697 49.667 C 395.823 49.667,396.035 49.517,396.167 49.333 C 396.299 49.150,396.506 49.000,396.628 49.000 C 397.662 49.000,398.143 46.128,397.258 45.242 C 397.033 45.017,396.658 44.833,396.424 44.833 C 396.191 44.833,396.000 44.758,396.000 44.667 C 396.000 44.575,395.850 44.500,395.667 44.500 C 395.483 44.500,395.333 44.425,395.333 44.333 C 395.333 44.242,395.071 44.167,394.750 44.167 C 394.429 44.167,394.167 44.092,394.167 44.000 C 394.167 43.908,394.017 43.833,393.833 43.833 C 393.650 43.833,393.500 43.758,393.500 43.667 C 393.500 43.575,393.275 43.500,393.000 43.500 C 392.667 43.500,392.500 43.417,392.500 43.250 C 392.500 43.069,392.315 43.000,391.833 43.000 C 391.467 43.000,391.167 42.925,391.167 42.833 C 391.167 42.742,390.829 42.667,390.417 42.667 C 390.004 42.667,389.667 42.592,389.667 42.500 C 389.667 42.408,389.367 42.333,389.000 42.333 C 388.633 42.333,388.333 42.258,388.333 42.167 C 388.333 42.075,387.996 42.000,387.583 42.000 C 387.171 42.000,386.833 41.925,386.833 41.833 C 386.833 41.742,386.458 41.667,386.000 41.667 C 385.542 41.667,385.167 41.592,385.167 41.500 C 385.167 41.408,384.792 41.333,384.333 41.333 C 383.875 41.333,383.500 41.258,383.500 41.167 C 383.500 41.075,383.087 41.000,382.583 41.000 C 382.079 41.000,381.667 40.925,381.667 40.833 C 381.667 40.742,381.367 40.667,381.000 40.667 C 380.633 40.667,380.333 40.592,380.333 40.500 C 380.333 40.408,379.921 40.333,379.417 40.333 C 378.912 40.333,378.500 40.258,378.500 40.167 C 378.500 40.074,378.056 40.000,377.500 40.000 C 376.944 40.000,376.500 39.926,376.500 39.833 C 376.500 39.742,376.087 39.667,375.583 39.667 C 374.880 39.667,374.667 39.609,374.667 39.417 C 374.667 39.222,374.444 39.167,373.667 39.167 C 373.111 39.167,372.667 39.093,372.667 39.000 C 372.667 38.908,372.254 38.833,371.750 38.833 C 371.246 38.833,370.833 38.758,370.833 38.667 C 370.833 38.575,370.458 38.500,370.000 38.500 C 369.542 38.500,369.167 38.425,369.167 38.333 C 369.167 38.239,368.694 38.167,368.083 38.167 C 367.472 38.167,367.000 38.094,367.000 38.000 C 367.000 37.908,366.625 37.833,366.167 37.833 C 365.708 37.833,365.333 37.758,365.333 37.667 C 365.333 37.573,364.861 37.500,364.250 37.500 C 363.639 37.500,363.167 37.427,363.167 37.333 C 363.167 37.237,362.639 37.167,361.917 37.167 C 361.194 37.167,360.667 37.096,360.667 37.000 C 360.667 36.905,360.167 36.833,359.500 36.833 C 358.833 36.833,358.333 36.762,358.333 36.667 C 358.333 36.567,357.694 36.500,356.750 36.500 C 355.806 36.500,355.167 36.433,355.167 36.333 C 355.167 36.234,354.528 36.167,353.583 36.167 C 352.639 36.167,352.000 36.099,352.000 36.000 C 352.000 35.902,351.417 35.833,350.583 35.833 C 349.435 35.833,349.167 35.786,349.167 35.583 C 349.167 35.377,348.861 35.333,347.417 35.333 C 346.361 35.333,345.667 35.267,345.667 35.167 C 345.667 35.066,344.972 35.000,343.917 35.000 C 342.861 35.000,342.167 34.934,342.167 34.833 C 342.167 34.735,341.556 34.667,340.667 34.667 C 339.778 34.667,339.167 34.599,339.167 34.500 C 339.167 34.399,338.417 34.333,337.250 34.333 C 336.083 34.333,335.333 34.268,335.333 34.167 C 335.333 34.069,334.750 34.000,333.917 34.000 C 333.083 34.000,332.500 33.931,332.500 33.833 C 332.500 33.733,331.806 33.667,330.750 33.667 C 329.694 33.667,329.000 33.601,329.000 33.500 C 329.000 33.401,328.361 33.333,327.417 33.333 C 326.472 33.333,325.833 33.266,325.833 33.167 C 325.833 33.067,325.194 33.000,324.250 33.000 C 323.306 33.000,322.667 32.933,322.667 32.833 C 322.667 32.734,322.028 32.667,321.083 32.667 C 320.139 32.667,319.500 32.599,319.500 32.500 C 319.500 32.401,318.867 32.333,317.934 32.333 C 316.697 32.333,316.349 32.281,316.273 32.083 C 316.200 31.892,315.884 31.833,314.922 31.833 C 314.196 31.833,313.667 31.763,313.667 31.667 C 313.667 31.564,312.864 31.500,311.593 31.500 C 310.391 31.500,309.476 31.430,309.417 31.333 C 309.360 31.242,308.718 31.167,307.990 31.167 C 307.219 31.167,306.667 31.097,306.667 31.000 C 306.667 30.901,306.028 30.833,305.083 30.833 C 304.139 30.833,303.500 30.766,303.500 30.667 C 303.500 30.566,302.806 30.500,301.750 30.500 C 300.694 30.500,300.000 30.434,300.000 30.333 C 300.000 30.114,295.888 30.110,295.753 30.328 C 295.613 30.555,296.101 30.642,298.583 30.833 C 300.628 30.990,304.412 31.389,316.917 32.767 C 319.850 33.090,322.962 33.427,323.833 33.515 C 325.894 33.724,337.312 34.947,339.250 35.167 C 340.075 35.260,342.137 35.484,343.833 35.664 C 348.176 36.124,349.784 36.300,352.167 36.577 C 353.313 36.710,354.813 36.861,355.500 36.913 C 356.188 36.965,357.238 37.081,357.833 37.170 C 358.429 37.260,359.779 37.449,360.833 37.590 C 361.887 37.732,363.912 38.063,365.333 38.327 C 366.754 38.590,368.854 38.966,370.000 39.162 C 371.146 39.359,372.421 39.585,372.833 39.666 C 373.246 39.747,374.483 39.978,375.583 40.179 C 376.683 40.380,379.421 40.938,381.667 41.420 C 383.912 41.901,386.238 42.388,386.833 42.503 C 392.072 43.509,397.010 45.408,397.252 46.509 C 397.681 48.464,389.541 53.545,376.917 59.201 C 376.092 59.571,374.929 60.096,374.333 60.368 C 373.738 60.639,372.425 61.196,371.417 61.605 C 370.408 62.014,369.433 62.418,369.250 62.503 C 369.067 62.587,367.867 63.067,366.583 63.567 C 355.848 67.757,346.895 70.753,339.403 72.665 C 333.477 74.177,317.919 77.205,309.417 78.502 C 308.133 78.698,306.146 79.001,305.000 79.176 C 301.222 79.752,287.513 81.621,284.333 81.993 C 277.847 82.753,267.630 83.324,260.250 83.341 C 257.408 83.347,253.733 83.420,252.083 83.502 C 242.748 83.968,217.876 84.167,205.750 83.873 C 191.433 83.525,188.118 83.390,176.333 82.671 C 174.912 82.584,171.725 82.465,169.250 82.405 C 166.493 82.338,164.234 82.201,163.417 82.052 C 162.683 81.918,161.671 81.767,161.167 81.718 C 159.668 81.571,159.355 81.058,158.492 77.333 C 158.290 76.462,157.940 75.112,157.714 74.333 C 157.489 73.554,157.080 72.092,156.806 71.083 C 155.002 64.447,153.262 60.407,150.851 57.266 C 149.272 55.208,146.000 52.965,143.150 51.988 C 141.366 51.376,130.174 51.195,125.750 51.705 C 124.375 51.864,122.425 52.074,121.417 52.171 C 119.139 52.391,116.264 52.850,112.583 53.581 C 111.025 53.891,108.888 54.260,107.833 54.400 C 106.779 54.541,104.231 54.885,102.172 55.164 C 100.112 55.444,97.000 55.821,95.255 56.002 C 93.511 56.184,90.958 56.484,89.583 56.669 C 84.351 57.371,81.986 57.595,77.083 57.849 C 72.381 58.092,61.824 57.937,59.250 57.587 C 52.271 56.637,51.719 56.586,48.667 56.596 C 41.350 56.619,37.382 58.065,33.316 62.188 C 29.937 65.614,29.850 65.627,23.799 63.572 C 10.028 58.893,2.745 48.150,5.221 36.167 C 6.043 32.186,7.738 29.530,11.095 26.966 C 13.935 24.796,15.523 24.356,25.667 22.920 C 26.721 22.771,27.771 22.614,28.000 22.570 C 29.025 22.378,50.176 21.862,61.833 21.745 C 66.279 21.701,70.836 21.591,71.959 21.501 C 73.083 21.411,74.658 21.373,75.459 21.418 C 76.261 21.462,78.417 21.576,80.250 21.672 C 82.083 21.767,84.971 21.952,86.667 22.083 C 88.362 22.214,92.150 22.400,95.083 22.497 C 103.256 22.766,107.967 22.988,111.167 23.256 C 112.771 23.390,116.023 23.576,118.393 23.668 C 120.764 23.761,122.779 23.883,122.870 23.940 C 122.962 23.996,125.816 24.107,129.212 24.185 C 134.653 24.311,143.245 24.640,155.083 25.175 C 157.100 25.266,160.325 25.412,162.250 25.499 C 164.175 25.586,169.313 25.809,173.667 25.995 C 178.021 26.181,184.058 26.446,187.083 26.585 C 190.108 26.724,194.708 26.911,197.305 27.001 C 201.944 27.161,218.805 27.825,226.833 28.163 C 229.079 28.258,232.754 28.410,235.000 28.501 C 237.246 28.592,240.396 28.740,242.000 28.830 C 243.604 28.921,248.029 29.073,251.833 29.170 C 255.637 29.267,262.912 29.455,268.000 29.588 C 273.087 29.720,280.287 29.904,284.000 29.995 C 287.712 30.087,291.688 30.217,292.833 30.285 C 293.979 30.353,295.028 30.410,295.164 30.412 C 295.301 30.415,295.437 30.285,295.468 30.125 C 295.519 29.861,295.343 29.833,293.596 29.833 C 292.421 29.833,291.667 29.768,291.667 29.667 C 291.667 29.559,289.639 29.500,285.917 29.500 C 282.194 29.500,280.167 29.441,280.167 29.333 C 280.167 29.225,277.667 29.167,273.000 29.167 C 268.333 29.167,265.833 29.109,265.833 29.000 C 265.833 28.892,263.444 28.833,259.000 28.833 C 254.556 28.833,252.167 28.775,252.167 28.667 C 252.167 28.559,250.250 28.500,246.750 28.500 C 242.046 28.500,241.333 28.467,241.333 28.250 C 241.333 28.037,240.899 28.000,238.427 28.000 C 236.668 28.000,235.479 27.934,235.417 27.833 C 235.352 27.729,233.637 27.667,230.823 27.667 C 227.941 27.667,226.333 27.607,226.333 27.500 C 226.333 27.393,224.833 27.333,222.167 27.333 C 219.500 27.333,218.000 27.273,218.000 27.167 C 218.000 27.060,216.500 27.000,213.833 27.000 C 211.167 27.000,209.667 26.940,209.667 26.833 C 209.667 26.726,207.917 26.667,204.750 26.667 C 201.583 26.667,199.833 26.607,199.833 26.500 C 199.833 26.393,198.222 26.333,195.333 26.333 C 192.444 26.333,190.833 26.274,190.833 26.167 C 190.833 26.060,189.417 26.000,186.917 26.000 C 184.417 26.000,183.000 25.940,183.000 25.833 C 183.000 25.727,181.556 25.667,179.000 25.667 C 176.444 25.667,175.000 25.606,175.000 25.500 C 175.000 25.393,173.444 25.333,170.667 25.333 C 167.889 25.333,166.333 25.274,166.333 25.167 C 166.333 25.061,165.000 25.000,162.667 25.000 C 160.333 25.000,159.000 24.939,159.000 24.833 C 159.000 24.727,157.667 24.667,155.333 24.667 C 152.185 24.667,151.667 24.631,151.667 24.417 C 151.667 24.201,151.093 24.167,147.500 24.167 C 144.833 24.167,143.333 24.107,143.333 24.000 C 143.333 23.908,143.071 23.833,142.750 23.833 C 142.343 23.833,142.167 23.909,142.167 24.083 C 142.167 24.221,142.092 24.333,142.000 24.333 C 141.908 24.333,141.833 24.221,141.833 24.083 C 141.833 23.868,141.241 23.833,137.500 23.833 C 134.722 23.833,133.167 23.774,133.167 23.667 C 133.167 23.559,131.361 23.500,128.083 23.500 C 124.806 23.500,123.000 23.441,123.000 23.333 C 123.000 23.228,121.778 23.167,119.667 23.167 C 117.556 23.167,116.333 23.106,116.333 23.000 C 116.333 22.896,115.306 22.833,113.583 22.833 C 111.861 22.833,110.833 22.771,110.833 22.667 C 110.833 22.563,109.917 22.500,108.417 22.500 C 106.917 22.500,106.000 22.437,106.000 22.333 C 106.000 22.226,104.417 22.167,101.583 22.167 C 98.750 22.167,97.167 22.107,97.167 22.000 C 97.167 21.893,95.611 21.833,92.833 21.833 C 90.056 21.833,88.500 21.774,88.500 21.667 C 88.500 21.564,87.639 21.500,86.250 21.500 C 84.861 21.500,84.000 21.436,84.000 21.333 C 84.000 21.227,82.472 21.167,79.750 21.167 C 77.028 21.167,75.500 21.107,75.500 21.000 C 75.500 20.899,74.806 20.833,73.750 20.833 C 72.694 20.833,72.000 20.899,72.000 21.000 M141.038 27.542 C 140.937 27.666,140.833 29.635,140.781 32.417 C 140.668 38.472,139.890 46.355,139.237 48.057 C 139.041 48.569,139.473 48.833,140.506 48.833 C 143.335 48.833,146.648 50.137,149.797 52.490 C 154.703 56.156,157.684 62.436,160.998 76.083 C 161.770 79.262,161.960 79.387,166.400 79.612 C 168.691 79.728,168.965 79.622,168.354 78.858 C 166.195 76.159,163.345 71.208,161.575 67.083 C 160.937 65.595,160.064 62.639,159.164 58.917 C 158.052 54.313,157.862 53.231,157.341 48.500 C 157.053 45.885,156.622 38.902,156.602 36.528 L 156.583 34.307 157.065 33.891 C 158.227 32.889,159.045 33.748,159.197 36.130 C 159.784 45.307,160.220 50.258,160.680 52.975 C 162.520 63.845,166.554 73.104,171.818 78.541 C 173.176 79.943,171.251 79.712,189.583 80.675 C 191.417 80.772,196.779 80.925,201.500 81.017 C 206.221 81.108,211.958 81.235,214.250 81.300 C 216.542 81.364,221.117 81.362,224.417 81.295 C 227.717 81.228,234.917 81.097,240.417 81.002 C 274.854 80.413,278.272 80.217,294.167 77.921 C 294.487 77.874,295.837 77.686,297.167 77.502 C 307.180 76.115,313.935 75.061,319.167 74.069 C 334.596 71.142,338.293 70.290,346.833 67.692 C 349.727 66.812,355.995 64.681,357.833 63.952 C 358.429 63.716,360.342 62.987,362.083 62.333 C 374.341 57.727,385.619 52.406,391.708 48.354 C 393.032 47.474,393.153 47.327,392.792 47.046 C 392.371 46.719,386.900 45.232,384.917 44.905 C 384.550 44.845,382.945 44.504,381.350 44.149 C 379.755 43.793,377.842 43.395,377.100 43.263 C 375.030 42.897,367.631 41.542,365.667 41.171 C 362.145 40.504,359.568 40.150,352.917 39.420 C 351.725 39.289,349.325 39.024,347.583 38.831 C 345.842 38.638,343.667 38.409,342.750 38.321 C 341.833 38.234,340.183 38.050,339.083 37.912 C 337.983 37.775,336.633 37.625,336.083 37.578 C 335.533 37.532,334.483 37.425,333.750 37.339 C 333.017 37.254,331.629 37.104,330.667 37.005 C 329.704 36.906,327.642 36.679,326.083 36.501 C 324.525 36.322,322.125 36.064,320.750 35.926 C 317.520 35.603,315.428 35.378,313.667 35.164 C 312.887 35.070,310.807 34.845,309.044 34.665 C 307.281 34.485,305.556 34.301,305.211 34.255 C 304.866 34.209,303.121 34.019,301.333 33.834 C 299.546 33.649,297.232 33.374,296.193 33.223 C 294.575 32.988,294.280 32.982,294.153 33.182 C 293.883 33.610,293.991 33.667,295.083 33.667 C 295.694 33.667,296.167 33.739,296.167 33.833 C 296.167 33.931,296.750 34.000,297.583 34.000 C 298.417 34.000,299.000 34.069,299.000 34.167 C 299.000 34.266,299.639 34.333,300.583 34.333 C 301.528 34.333,302.167 34.401,302.167 34.500 C 302.167 34.599,302.778 34.667,303.667 34.667 C 304.556 34.667,305.167 34.735,305.167 34.833 C 305.167 34.934,305.861 35.000,306.917 35.000 C 307.972 35.000,308.667 35.066,308.667 35.167 C 308.667 35.268,309.411 35.333,310.566 35.333 C 312.100 35.333,312.483 35.381,312.560 35.583 C 312.635 35.777,312.959 35.833,313.995 35.833 C 314.776 35.833,315.333 35.903,315.333 36.000 C 315.333 36.099,315.972 36.167,316.917 36.167 C 317.861 36.167,318.500 36.234,318.500 36.333 C 318.500 36.434,319.194 36.500,320.250 36.500 C 321.306 36.500,322.000 36.566,322.000 36.667 C 322.000 36.765,322.583 36.833,323.417 36.833 C 324.250 36.833,324.833 36.902,324.833 37.000 C 324.833 37.099,325.472 37.167,326.417 37.167 C 327.361 37.167,328.000 37.234,328.000 37.333 C 328.000 37.433,328.663 37.500,329.657 37.500 C 330.582 37.500,331.359 37.574,331.417 37.667 C 331.473 37.758,332.190 37.833,333.010 37.833 C 333.892 37.833,334.500 37.901,334.500 38.000 C 334.500 38.101,335.194 38.167,336.250 38.167 C 337.306 38.167,338.000 38.233,338.000 38.333 C 338.000 38.433,338.639 38.500,339.583 38.500 C 340.528 38.500,341.167 38.567,341.167 38.667 C 341.167 38.767,341.861 38.833,342.917 38.833 C 343.972 38.833,344.667 38.899,344.667 39.000 C 344.667 39.099,345.306 39.167,346.250 39.167 C 347.546 39.167,347.833 39.212,347.833 39.417 C 347.833 39.621,348.120 39.667,349.417 39.667 C 350.361 39.667,351.000 39.734,351.000 39.833 C 351.000 39.933,351.639 40.000,352.583 40.000 C 353.528 40.000,354.167 40.067,354.167 40.167 C 354.167 40.262,354.667 40.333,355.333 40.333 C 356.000 40.333,356.500 40.405,356.500 40.500 C 356.500 40.601,357.194 40.667,358.250 40.667 C 359.306 40.667,360.000 40.733,360.000 40.833 C 360.000 40.927,360.472 41.000,361.083 41.000 C 361.694 41.000,362.167 41.073,362.167 41.167 C 362.167 41.259,362.611 41.333,363.167 41.333 C 363.722 41.333,364.167 41.407,364.167 41.500 C 364.167 41.592,364.579 41.667,365.083 41.667 C 365.587 41.667,366.000 41.742,366.000 41.833 C 366.000 41.925,366.375 42.000,366.833 42.000 C 367.292 42.000,367.667 42.075,367.667 42.167 C 367.667 42.263,368.194 42.333,368.917 42.333 C 369.639 42.333,370.167 42.404,370.167 42.500 C 370.167 42.592,370.542 42.667,371.000 42.667 C 371.458 42.667,371.833 42.742,371.833 42.833 C 371.833 42.927,372.306 43.000,372.917 43.000 C 373.769 43.000,374.000 43.053,374.000 43.250 C 374.000 43.438,374.203 43.500,374.823 43.500 C 375.276 43.500,375.693 43.575,375.750 43.667 C 375.807 43.758,376.224 43.833,376.677 43.833 C 377.129 43.833,377.500 43.908,377.500 44.000 C 377.500 44.092,377.875 44.167,378.333 44.167 C 378.792 44.167,379.167 44.242,379.167 44.333 C 379.167 44.425,379.579 44.500,380.083 44.500 C 380.587 44.500,381.000 44.575,381.000 44.667 C 381.000 44.758,381.300 44.833,381.667 44.833 C 382.033 44.833,382.333 44.908,382.333 45.000 C 382.333 45.092,382.746 45.167,383.250 45.167 C 383.754 45.167,384.167 45.242,384.167 45.333 C 384.167 45.425,384.542 45.500,385.000 45.500 C 385.458 45.500,385.833 45.575,385.833 45.667 C 385.833 45.758,386.171 45.833,386.583 45.833 C 386.996 45.833,387.333 45.908,387.333 46.000 C 387.333 46.092,387.633 46.167,388.000 46.167 C 388.367 46.167,388.667 46.242,388.667 46.333 C 388.667 46.425,388.967 46.500,389.333 46.500 C 389.700 46.500,390.000 46.575,390.000 46.667 C 390.000 46.758,390.262 46.833,390.583 46.833 C 390.991 46.833,391.167 46.909,391.167 47.083 C 391.167 47.222,391.315 47.333,391.500 47.333 C 391.683 47.333,391.833 47.374,391.833 47.424 C 391.833 47.661,390.976 48.333,390.674 48.333 C 390.487 48.333,390.333 48.408,390.333 48.500 C 390.333 48.592,390.200 48.667,390.037 48.667 C 389.874 48.667,389.632 48.817,389.500 49.000 C 389.368 49.183,389.126 49.333,388.963 49.333 C 388.800 49.333,388.667 49.408,388.667 49.500 C 388.667 49.592,388.533 49.667,388.370 49.667 C 388.207 49.667,387.965 49.817,387.833 50.000 C 387.701 50.183,387.457 50.333,387.291 50.333 C 387.125 50.333,386.946 50.446,386.894 50.583 C 386.841 50.721,386.656 50.833,386.482 50.833 C 386.309 50.833,386.167 50.908,386.167 51.000 C 386.167 51.092,386.017 51.167,385.833 51.167 C 385.650 51.167,385.500 51.242,385.500 51.333 C 385.500 51.425,385.350 51.500,385.167 51.500 C 384.983 51.500,384.833 51.575,384.833 51.667 C 384.833 51.758,384.683 51.833,384.500 51.833 C 384.317 51.833,384.167 51.908,384.167 52.000 C 384.167 52.092,384.017 52.167,383.833 52.167 C 383.650 52.167,383.500 52.242,383.500 52.333 C 383.500 52.425,383.313 52.500,383.083 52.500 C 382.854 52.500,382.667 52.575,382.667 52.667 C 382.667 52.758,382.517 52.833,382.333 52.833 C 382.150 52.833,382.000 52.908,382.000 53.000 C 382.000 53.092,381.850 53.167,381.667 53.167 C 381.483 53.167,381.333 53.242,381.333 53.333 C 381.333 53.425,381.183 53.500,381.000 53.500 C 380.817 53.500,380.667 53.575,380.667 53.667 C 380.667 53.758,380.517 53.833,380.333 53.833 C 380.150 53.833,380.000 53.908,380.000 54.000 C 380.000 54.092,379.848 54.167,379.661 54.167 C 379.475 54.167,379.280 54.279,379.227 54.417 C 379.174 54.554,378.989 54.667,378.816 54.667 C 378.642 54.667,378.500 54.742,378.500 54.833 C 378.500 54.925,378.350 55.000,378.167 55.000 C 377.983 55.000,377.833 55.075,377.833 55.167 C 377.833 55.258,377.608 55.333,377.333 55.333 C 377.058 55.333,376.833 55.408,376.833 55.500 C 376.833 55.592,376.683 55.667,376.500 55.667 C 376.317 55.667,376.167 55.742,376.167 55.833 C 376.167 55.925,375.979 56.000,375.750 56.000 C 375.521 56.000,375.333 56.075,375.333 56.167 C 375.333 56.258,375.183 56.333,375.000 56.333 C 374.817 56.333,374.667 56.408,374.667 56.500 C 374.667 56.592,374.517 56.667,374.333 56.667 C 374.150 56.667,374.000 56.742,374.000 56.833 C 374.000 56.925,373.775 57.000,373.500 57.000 C 373.225 57.000,373.000 57.075,373.000 57.167 C 373.000 57.258,372.850 57.333,372.667 57.333 C 372.483 57.333,372.333 57.408,372.333 57.500 C 372.333 57.592,372.146 57.667,371.917 57.667 C 371.688 57.667,371.500 57.742,371.500 57.833 C 371.500 57.925,371.275 58.000,371.000 58.000 C 370.667 58.000,370.500 58.083,370.500 58.250 C 370.500 58.389,370.352 58.500,370.167 58.500 C 369.983 58.500,369.833 58.575,369.833 58.667 C 369.833 58.758,369.683 58.833,369.500 58.833 C 369.317 58.833,369.167 58.908,369.167 59.000 C 369.167 59.092,368.904 59.167,368.583 59.167 C 368.262 59.167,368.000 59.242,368.000 59.333 C 368.000 59.425,367.850 59.500,367.667 59.500 C 367.483 59.500,367.333 59.575,367.333 59.667 C 367.333 59.758,367.108 59.833,366.833 59.833 C 366.558 59.833,366.333 59.908,366.333 60.000 C 366.333 60.092,366.108 60.167,365.833 60.167 C 365.558 60.167,365.333 60.242,365.333 60.333 C 365.333 60.425,365.146 60.500,364.917 60.500 C 364.688 60.500,364.500 60.575,364.500 60.667 C 364.500 60.758,364.350 60.833,364.167 60.833 C 363.983 60.833,363.833 60.908,363.833 61.000 C 363.833 61.092,363.608 61.167,363.333 61.167 C 363.058 61.167,362.833 61.242,362.833 61.333 C 362.833 61.425,362.683 61.500,362.500 61.500 C 362.317 61.500,362.167 61.575,362.167 61.667 C 362.167 61.758,361.864 61.833,361.495 61.833 C 361.051 61.833,360.790 61.918,360.727 62.083 C 360.674 62.221,360.489 62.333,360.316 62.333 C 360.142 62.333,360.000 62.408,360.000 62.500 C 360.000 62.592,359.850 62.667,359.667 62.667 C 359.483 62.667,359.333 62.742,359.333 62.833 C 359.333 62.925,359.108 63.000,358.833 63.000 C 358.558 63.000,358.333 63.075,358.333 63.167 C 358.333 63.258,358.071 63.333,357.750 63.333 C 357.429 63.333,357.167 63.408,357.167 63.500 C 357.167 63.592,357.017 63.667,356.833 63.667 C 356.650 63.667,356.500 63.742,356.500 63.833 C 356.500 63.925,356.275 64.000,356.000 64.000 C 355.725 64.000,355.500 64.075,355.500 64.167 C 355.500 64.258,355.275 64.333,355.000 64.333 C 354.725 64.333,354.500 64.408,354.500 64.500 C 354.500 64.592,354.238 64.667,353.917 64.667 C 353.596 64.667,353.333 64.742,353.333 64.833 C 353.333 64.925,353.108 65.000,352.833 65.000 C 352.558 65.000,352.333 65.075,352.333 65.167 C 352.333 65.258,352.108 65.333,351.833 65.333 C 351.558 65.333,351.333 65.408,351.333 65.500 C 351.333 65.592,351.143 65.667,350.911 65.667 C 350.679 65.667,350.446 65.779,350.394 65.917 C 350.334 66.071,350.081 66.167,349.732 66.167 C 349.421 66.167,349.167 66.242,349.167 66.333 C 349.167 66.425,348.942 66.500,348.667 66.500 C 348.392 66.500,348.167 66.575,348.167 66.667 C 348.167 66.758,347.942 66.833,347.667 66.833 C 347.392 66.833,347.167 66.908,347.167 67.000 C 347.167 67.092,346.904 67.167,346.583 67.167 C 346.262 67.167,346.000 67.242,346.000 67.333 C 346.000 67.425,345.775 67.500,345.500 67.500 C 345.225 67.500,345.000 67.575,345.000 67.667 C 345.000 67.758,344.700 67.833,344.333 67.833 C 343.967 67.833,343.667 67.908,343.667 68.000 C 343.667 68.092,343.329 68.167,342.917 68.167 C 342.504 68.167,342.167 68.242,342.167 68.333 C 342.167 68.425,341.942 68.500,341.667 68.500 C 341.392 68.500,341.167 68.575,341.167 68.667 C 341.167 68.758,340.867 68.833,340.500 68.833 C 340.133 68.833,339.833 68.908,339.833 69.000 C 339.833 69.092,339.496 69.167,339.083 69.167 C 338.528 69.167,338.333 69.231,338.333 69.417 C 338.333 69.597,338.148 69.667,337.667 69.667 C 337.300 69.667,337.000 69.742,337.000 69.833 C 337.000 69.925,336.700 70.000,336.333 70.000 C 335.967 70.000,335.667 70.075,335.667 70.167 C 335.667 70.258,335.329 70.333,334.917 70.333 C 334.504 70.333,334.167 70.408,334.167 70.500 C 334.167 70.592,333.792 70.667,333.333 70.667 C 332.875 70.667,332.500 70.742,332.500 70.833 C 332.500 70.925,332.087 71.000,331.583 71.000 C 331.079 71.000,330.667 71.075,330.667 71.167 C 330.667 71.258,330.292 71.333,329.833 71.333 C 329.375 71.333,329.000 71.408,329.000 71.500 C 329.000 71.592,328.587 71.667,328.083 71.667 C 327.579 71.667,327.167 71.742,327.167 71.833 C 327.167 71.925,326.792 72.000,326.333 72.000 C 325.875 72.000,325.500 72.075,325.500 72.167 C 325.500 72.258,325.087 72.333,324.583 72.333 C 324.079 72.333,323.667 72.408,323.667 72.500 C 323.667 72.592,323.292 72.667,322.833 72.667 C 322.375 72.667,322.000 72.742,322.000 72.833 C 322.000 72.925,321.623 73.000,321.161 73.000 C 320.570 73.000,320.295 73.074,320.227 73.250 C 320.157 73.433,319.868 73.500,319.149 73.500 C 318.605 73.500,318.167 73.574,318.167 73.667 C 318.167 73.758,317.754 73.833,317.250 73.833 C 316.746 73.833,316.333 73.908,316.333 74.000 C 316.333 74.093,315.889 74.167,315.333 74.167 C 314.778 74.167,314.333 74.241,314.333 74.333 C 314.333 74.425,313.921 74.500,313.417 74.500 C 312.912 74.500,312.500 74.575,312.500 74.667 C 312.500 74.762,312.000 74.833,311.333 74.833 C 310.667 74.833,310.167 74.905,310.167 75.000 C 310.167 75.094,309.694 75.167,309.083 75.167 C 308.472 75.167,308.000 75.239,308.000 75.333 C 308.000 75.429,307.500 75.500,306.833 75.500 C 306.167 75.500,305.667 75.571,305.667 75.667 C 305.667 75.763,305.139 75.833,304.417 75.833 C 303.694 75.833,303.167 75.904,303.167 76.000 C 303.167 76.096,302.639 76.167,301.917 76.167 C 301.194 76.167,300.667 76.237,300.667 76.333 C 300.667 76.429,300.167 76.500,299.500 76.500 C 298.833 76.500,298.333 76.571,298.333 76.667 C 298.333 76.763,297.806 76.833,297.083 76.833 C 296.083 76.833,295.833 76.883,295.833 77.083 C 295.833 77.283,295.583 77.333,294.583 77.333 C 293.861 77.333,293.333 77.404,293.333 77.500 C 293.333 77.595,292.833 77.667,292.167 77.667 C 291.500 77.667,291.000 77.738,291.000 77.833 C 291.000 77.931,290.417 78.000,289.583 78.000 C 288.750 78.000,288.167 78.069,288.167 78.167 C 288.167 78.263,287.639 78.333,286.917 78.333 C 286.194 78.333,285.667 78.404,285.667 78.500 C 285.667 78.598,285.083 78.667,284.250 78.667 C 283.417 78.667,282.833 78.735,282.833 78.833 C 282.833 78.936,281.972 79.000,280.583 79.000 C 279.194 79.000,278.333 79.064,278.333 79.167 C 278.333 79.269,277.528 79.333,276.250 79.333 C 274.972 79.333,274.167 79.398,274.167 79.500 C 274.167 79.605,273.056 79.667,271.167 79.667 C 269.278 79.667,268.167 79.728,268.167 79.833 C 268.167 79.942,265.111 80.000,259.333 80.000 C 253.556 80.000,250.500 80.058,250.500 80.167 C 250.500 80.276,247.250 80.333,241.083 80.333 C 233.661 80.333,231.667 80.377,231.667 80.542 C 231.667 80.706,229.356 80.750,220.667 80.750 C 211.978 80.750,209.667 80.706,209.667 80.542 C 209.667 80.378,207.905 80.333,201.417 80.333 C 196.028 80.333,193.167 80.276,193.167 80.167 C 193.167 80.060,191.778 80.000,189.333 80.000 C 186.889 80.000,185.500 79.940,185.500 79.833 C 185.500 79.728,184.278 79.667,182.167 79.667 C 180.056 79.667,178.833 79.606,178.833 79.500 C 178.833 79.396,177.861 79.333,176.250 79.333 C 174.639 79.333,173.667 79.271,173.667 79.167 C 173.667 79.075,173.547 79.000,173.400 79.000 C 173.254 79.000,172.924 78.775,172.667 78.500 C 172.410 78.225,172.151 78.000,172.092 78.000 C 171.871 78.000,171.167 77.171,171.167 76.911 C 171.167 76.762,170.867 76.352,170.500 76.000 C 170.133 75.648,169.833 75.258,169.833 75.133 C 169.833 75.009,169.683 74.799,169.500 74.667 C 169.317 74.535,169.167 74.293,169.167 74.130 C 169.167 73.967,169.092 73.833,169.000 73.833 C 168.908 73.833,168.833 73.701,168.833 73.540 C 168.833 73.379,168.572 73.023,168.254 72.748 C 167.935 72.474,167.672 72.119,167.670 71.958 C 167.668 71.798,167.592 71.667,167.500 71.667 C 167.408 71.667,167.333 71.517,167.333 71.333 C 167.333 71.150,167.258 71.000,167.167 71.000 C 167.075 71.000,167.000 70.850,167.000 70.667 C 167.000 70.483,166.925 70.333,166.833 70.333 C 166.742 70.333,166.667 70.183,166.667 70.000 C 166.667 69.817,166.592 69.667,166.500 69.667 C 166.408 69.667,166.333 69.479,166.333 69.250 C 166.333 69.021,166.258 68.833,166.167 68.833 C 166.075 68.833,166.000 68.700,166.000 68.537 C 166.000 68.374,165.850 68.132,165.667 68.000 C 165.471 67.859,165.333 67.569,165.333 67.297 C 165.333 67.042,165.258 66.833,165.167 66.833 C 165.075 66.833,165.000 66.683,165.000 66.500 C 165.000 66.315,164.889 66.167,164.750 66.167 C 164.575 66.167,164.500 65.991,164.500 65.583 C 164.500 65.262,164.425 65.000,164.333 65.000 C 164.242 65.000,164.167 64.775,164.167 64.500 C 164.167 64.225,164.092 64.000,164.000 64.000 C 163.908 64.000,163.833 63.775,163.833 63.500 C 163.833 63.225,163.758 63.000,163.667 63.000 C 163.575 63.000,163.500 62.663,163.500 62.250 C 163.500 61.837,163.425 61.500,163.333 61.500 C 163.242 61.500,163.167 61.275,163.167 61.000 C 163.167 60.725,163.092 60.500,163.000 60.500 C 162.908 60.500,162.833 60.200,162.833 59.833 C 162.833 59.467,162.758 59.167,162.667 59.167 C 162.575 59.167,162.500 58.829,162.500 58.417 C 162.500 58.004,162.425 57.667,162.333 57.667 C 162.242 57.667,162.167 57.292,162.167 56.833 C 162.167 56.375,162.092 56.000,162.000 56.000 C 161.908 56.000,161.833 55.775,161.833 55.500 C 161.833 55.225,161.758 55.000,161.667 55.000 C 161.573 55.000,161.500 54.528,161.500 53.917 C 161.500 53.065,161.447 52.833,161.250 52.833 C 161.050 52.833,161.000 52.583,161.000 51.583 C 161.000 50.861,160.930 50.333,160.833 50.333 C 160.733 50.333,160.667 49.639,160.667 48.583 C 160.667 47.528,160.601 46.833,160.500 46.833 C 160.398 46.833,160.333 46.028,160.333 44.750 C 160.333 43.472,160.269 42.667,160.167 42.667 C 160.063 42.667,160.000 41.694,160.000 40.083 C 160.000 38.472,159.937 37.500,159.833 37.500 C 159.732 37.500,159.667 36.775,159.667 35.659 C 159.667 33.319,159.448 33.000,157.841 33.000 C 157.280 33.000,156.833 33.074,156.833 33.167 C 156.833 33.258,156.683 33.333,156.500 33.333 C 156.278 33.333,156.167 33.444,156.167 33.667 C 156.167 33.850,156.092 34.000,156.000 34.000 C 155.897 34.000,155.833 34.861,155.833 36.250 C 155.833 37.639,155.897 38.500,156.000 38.500 C 156.104 38.500,156.167 39.500,156.167 41.167 C 156.167 42.833,156.229 43.833,156.333 43.833 C 156.436 43.833,156.500 44.694,156.500 46.083 C 156.500 47.472,156.564 48.333,156.667 48.333 C 156.766 48.333,156.833 48.972,156.833 49.917 C 156.833 50.861,156.901 51.500,157.000 51.500 C 157.097 51.500,157.167 52.056,157.167 52.833 C 157.167 53.907,157.215 54.167,157.417 54.167 C 157.602 54.167,157.667 54.361,157.667 54.917 C 157.667 55.329,157.742 55.667,157.833 55.667 C 157.925 55.667,158.000 55.967,158.000 56.333 C 158.000 56.700,158.075 57.000,158.167 57.000 C 158.258 57.000,158.333 57.413,158.333 57.917 C 158.333 58.421,158.408 58.833,158.500 58.833 C 158.592 58.833,158.667 59.133,158.667 59.500 C 158.667 59.867,158.742 60.167,158.833 60.167 C 158.925 60.167,159.000 60.467,159.000 60.833 C 159.000 61.200,159.075 61.500,159.167 61.500 C 159.258 61.500,159.333 61.762,159.333 62.083 C 159.333 62.404,159.408 62.667,159.500 62.667 C 159.592 62.667,159.667 62.967,159.667 63.333 C 159.667 63.700,159.742 64.000,159.833 64.000 C 159.925 64.000,160.000 64.225,160.000 64.500 C 160.000 64.775,160.075 65.000,160.167 65.000 C 160.258 65.000,160.333 65.262,160.333 65.583 C 160.333 65.904,160.408 66.167,160.500 66.167 C 160.592 66.167,160.667 66.392,160.667 66.667 C 160.667 66.942,160.742 67.167,160.833 67.167 C 160.925 67.167,161.000 67.282,161.000 67.422 C 161.000 67.562,161.112 67.720,161.250 67.773 C 161.387 67.826,161.500 68.011,161.500 68.184 C 161.500 68.358,161.575 68.500,161.667 68.500 C 161.758 68.500,161.833 68.762,161.833 69.083 C 161.833 69.404,161.908 69.667,162.000 69.667 C 162.092 69.667,162.167 69.817,162.167 70.000 C 162.167 70.183,162.242 70.333,162.333 70.333 C 162.425 70.333,162.500 70.483,162.500 70.667 C 162.500 70.850,162.575 71.000,162.667 71.000 C 162.758 71.000,162.833 71.150,162.833 71.333 C 162.833 71.517,162.908 71.667,163.000 71.667 C 163.092 71.667,163.167 71.817,163.167 72.000 C 163.167 72.183,163.242 72.333,163.333 72.333 C 163.425 72.333,163.500 72.483,163.500 72.667 C 163.500 72.850,163.575 73.000,163.667 73.000 C 163.758 73.000,163.833 73.153,163.833 73.341 C 163.833 73.696,164.522 74.500,164.826 74.500 C 164.922 74.500,165.000 74.650,165.000 74.833 C 165.000 75.017,165.075 75.167,165.167 75.167 C 165.258 75.167,165.333 75.300,165.333 75.463 C 165.333 75.626,165.483 75.868,165.667 76.000 C 165.850 76.132,166.000 76.374,166.000 76.537 C 166.000 76.700,166.075 76.833,166.167 76.833 C 166.258 76.833,166.333 76.946,166.333 77.083 C 166.333 77.221,166.408 77.333,166.500 77.333 C 166.592 77.333,166.667 77.467,166.667 77.630 C 166.667 77.793,166.817 78.035,167.000 78.167 C 167.813 78.753,167.442 79.000,165.750 79.000 C 164.806 79.000,164.167 78.933,164.167 78.833 C 164.167 78.742,163.867 78.667,163.500 78.667 C 163.133 78.667,162.833 78.592,162.833 78.500 C 162.833 78.408,162.683 78.333,162.500 78.333 C 162.278 78.333,162.167 78.222,162.167 78.000 C 162.167 77.817,162.092 77.667,162.000 77.667 C 161.908 77.667,161.833 77.254,161.833 76.750 C 161.833 76.246,161.758 75.833,161.667 75.833 C 161.575 75.833,161.500 75.533,161.500 75.167 C 161.500 74.685,161.431 74.500,161.250 74.500 C 161.065 74.500,161.000 74.306,161.000 73.750 C 161.000 73.337,160.925 73.000,160.833 73.000 C 160.742 73.000,160.667 72.775,160.667 72.500 C 160.667 72.225,160.592 72.000,160.500 72.000 C 160.408 72.000,160.333 71.775,160.333 71.500 C 160.333 71.225,160.258 71.000,160.167 71.000 C 160.075 71.000,160.000 70.700,160.000 70.333 C 160.000 69.967,159.925 69.667,159.833 69.667 C 159.742 69.667,159.667 69.404,159.667 69.083 C 159.667 68.762,159.592 68.500,159.500 68.500 C 159.408 68.500,159.333 68.200,159.333 67.833 C 159.333 67.467,159.258 67.167,159.167 67.167 C 159.075 67.167,159.000 66.871,159.000 66.510 C 159.000 66.149,158.925 65.807,158.833 65.750 C 158.742 65.693,158.667 65.426,158.667 65.157 C 158.667 64.887,158.592 64.667,158.500 64.667 C 158.408 64.667,158.333 64.517,158.333 64.333 C 158.333 64.150,158.258 64.000,158.167 64.000 C 158.075 64.000,158.000 63.775,158.000 63.500 C 158.000 63.225,157.925 63.000,157.833 63.000 C 157.742 63.000,157.667 62.773,157.667 62.495 C 157.667 62.199,157.563 61.950,157.417 61.894 C 157.279 61.841,157.167 61.656,157.167 61.482 C 157.167 61.309,157.092 61.167,157.000 61.167 C 156.908 61.167,156.833 61.017,156.833 60.833 C 156.833 60.650,156.758 60.500,156.667 60.500 C 156.575 60.500,156.500 60.350,156.500 60.167 C 156.500 59.983,156.425 59.833,156.333 59.833 C 156.242 59.833,156.167 59.683,156.167 59.500 C 156.167 59.317,156.092 59.167,156.000 59.167 C 155.908 59.167,155.833 59.017,155.833 58.833 C 155.833 58.650,155.758 58.500,155.667 58.500 C 155.575 58.500,155.500 58.329,155.500 58.120 C 155.500 57.911,155.350 57.632,155.167 57.500 C 154.983 57.368,154.833 57.143,154.833 57.000 C 154.833 56.857,154.683 56.632,154.500 56.500 C 154.317 56.368,154.167 56.158,154.167 56.035 C 154.167 55.806,153.776 55.333,153.588 55.333 C 153.341 55.333,152.667 54.484,152.667 54.174 C 152.667 53.719,152.854 53.744,153.234 54.250 C 153.591 54.725,155.500 54.897,155.500 54.453 C 155.500 54.336,155.650 54.132,155.833 54.000 C 156.098 53.809,156.167 53.569,156.167 52.833 C 156.167 52.098,156.098 51.857,155.833 51.667 C 155.650 51.535,155.500 51.293,155.500 51.130 C 155.500 50.967,155.425 50.833,155.333 50.833 C 155.242 50.833,155.167 50.756,155.167 50.661 C 155.167 50.384,154.037 49.333,153.739 49.333 C 153.589 49.333,153.257 49.108,153.000 48.833 C 152.743 48.558,152.430 48.333,152.303 48.333 C 152.177 48.333,151.965 48.183,151.833 48.000 C 151.692 47.804,151.402 47.667,151.130 47.667 C 150.875 47.667,150.667 47.592,150.667 47.500 C 150.667 47.408,150.479 47.333,150.250 47.333 C 150.021 47.333,149.833 47.253,149.833 47.155 C 149.833 46.837,149.368 46.500,148.929 46.500 C 148.693 46.500,148.500 46.425,148.500 46.333 C 148.500 46.242,148.350 46.167,148.167 46.167 C 147.983 46.167,147.833 46.092,147.833 46.000 C 147.833 45.908,147.608 45.833,147.333 45.833 C 147.058 45.833,146.833 45.758,146.833 45.667 C 146.833 45.575,146.496 45.500,146.083 45.500 C 145.671 45.500,145.333 45.425,145.333 45.333 C 145.333 45.242,145.033 45.167,144.667 45.167 C 144.300 45.167,144.000 45.092,144.000 45.000 C 144.000 44.906,143.528 44.833,142.917 44.833 C 142.306 44.833,141.833 44.906,141.833 45.000 C 141.833 45.092,141.715 45.167,141.571 45.167 C 141.235 45.167,140.833 45.568,140.833 45.905 C 140.833 46.049,140.758 46.167,140.667 46.167 C 140.575 46.167,140.500 46.317,140.500 46.500 C 140.500 46.683,140.575 46.833,140.667 46.833 C 140.758 46.833,140.833 47.096,140.833 47.417 C 140.833 47.737,140.908 48.000,141.000 48.000 C 141.092 48.000,141.167 48.075,141.167 48.167 C 141.167 48.258,140.867 48.333,140.500 48.333 C 139.944 48.333,139.833 48.278,139.833 48.000 C 139.833 47.817,139.908 47.667,140.000 47.667 C 140.094 47.667,140.167 47.194,140.167 46.583 C 140.167 45.972,140.239 45.500,140.333 45.500 C 140.426 45.500,140.500 45.056,140.500 44.500 C 140.500 43.944,140.574 43.500,140.667 43.500 C 140.766 43.500,140.833 42.861,140.833 41.917 C 140.833 40.972,140.901 40.333,141.000 40.333 C 141.104 40.333,141.167 39.389,141.167 37.833 C 141.167 36.278,141.230 35.333,141.333 35.333 C 141.426 35.333,141.500 34.889,141.500 34.333 C 141.500 33.778,141.426 33.333,141.333 33.333 C 141.242 33.333,141.167 33.108,141.167 32.833 C 141.167 32.558,141.242 32.333,141.333 32.333 C 141.437 32.333,141.500 31.444,141.500 30.000 C 141.500 28.556,141.563 27.667,141.667 27.667 C 141.758 27.667,141.833 27.742,141.833 27.833 C 141.833 27.940,143.272 28.000,145.816 28.000 C 149.201 28.000,149.812 28.037,149.894 28.250 C 149.975 28.462,150.570 28.500,153.828 28.500 C 156.276 28.500,157.667 28.560,157.667 28.667 C 157.667 28.773,159.000 28.833,161.333 28.833 C 163.667 28.833,165.000 28.894,165.000 29.000 C 165.000 29.107,166.556 29.167,169.333 29.167 C 172.111 29.167,173.667 29.226,173.667 29.333 C 173.667 29.440,175.056 29.500,177.500 29.500 C 179.944 29.500,181.333 29.560,181.333 29.667 C 181.333 29.773,182.833 29.833,185.500 29.833 C 188.167 29.833,189.667 29.893,189.667 30.000 C 189.667 30.106,191.056 30.167,193.500 30.167 C 195.944 30.167,197.333 30.227,197.333 30.333 C 197.333 30.441,199.194 30.500,202.583 30.500 C 205.972 30.500,207.833 30.559,207.833 30.667 C 207.833 30.773,209.222 30.833,211.667 30.833 C 214.111 30.833,215.500 30.894,215.500 31.000 C 215.500 31.107,217.139 31.167,220.083 31.167 C 223.028 31.167,224.667 31.226,224.667 31.333 C 224.667 31.440,226.222 31.500,229.000 31.500 C 231.778 31.500,233.333 31.560,233.333 31.667 C 233.333 31.772,234.500 31.833,236.500 31.833 C 239.204 31.833,239.667 31.870,239.667 32.083 C 239.667 32.300,240.361 32.333,244.917 32.333 C 248.306 32.333,250.167 32.392,250.167 32.500 C 250.167 32.608,252.583 32.667,257.083 32.667 C 261.583 32.667,264.000 32.725,264.000 32.833 C 264.000 32.942,266.333 33.000,270.667 33.000 C 275.000 33.000,277.333 33.058,277.333 33.167 C 277.333 33.275,279.639 33.333,283.917 33.333 C 288.194 33.333,290.500 33.392,290.500 33.500 C 290.500 33.592,290.912 33.667,291.417 33.667 C 291.921 33.667,292.333 33.592,292.333 33.500 C 292.333 33.408,292.686 33.333,293.117 33.333 C 293.594 33.333,293.838 33.274,293.742 33.181 C 293.573 33.018,275.507 32.484,248.167 31.834 C 244.179 31.739,240.429 31.589,239.833 31.502 C 239.237 31.415,237.400 31.303,235.750 31.255 C 234.100 31.207,230.950 31.092,228.750 31.001 C 226.550 30.909,222.838 30.757,220.500 30.663 C 218.162 30.569,214.487 30.419,212.333 30.331 C 210.179 30.242,205.379 30.057,201.667 29.919 C 195.096 29.675,189.368 29.435,177.750 28.919 C 174.633 28.780,168.596 28.516,164.333 28.333 C 160.071 28.149,154.933 27.922,152.917 27.828 C 140.878 27.265,141.256 27.274,141.038 27.542 M9.378 42.119 C 7.541 42.464,8.487 46.506,11.452 50.983 C 16.029 57.894,29.167 64.923,29.167 60.461 C 29.167 59.879,28.332 59.002,27.774 58.997 C 27.132 58.991,24.673 58.032,22.944 57.113 C 17.113 54.016,13.043 49.430,11.429 44.139 C 10.891 42.375,10.431 41.922,9.378 42.119 M10.333 43.083 C 10.333 43.313,10.408 43.500,10.500 43.500 C 10.592 43.500,10.667 43.650,10.667 43.833 C 10.667 44.017,10.742 44.167,10.833 44.167 C 10.925 44.167,11.000 44.467,11.000 44.833 C 11.000 45.200,11.075 45.500,11.167 45.500 C 11.258 45.500,11.333 45.650,11.333 45.833 C 11.333 46.017,11.408 46.167,11.500 46.167 C 11.592 46.167,11.667 46.317,11.667 46.500 C 11.667 46.683,11.742 46.833,11.833 46.833 C 11.925 46.833,12.000 47.079,12.000 47.380 C 12.000 47.735,12.117 48.010,12.333 48.167 C 12.517 48.299,12.667 48.540,12.667 48.703 C 12.667 48.867,12.779 49.000,12.917 49.000 C 13.054 49.000,13.167 49.133,13.167 49.297 C 13.167 49.460,13.317 49.701,13.500 49.833 C 13.683 49.965,13.833 50.207,13.833 50.370 C 13.833 50.533,13.908 50.667,14.000 50.667 C 14.092 50.667,14.167 50.743,14.167 50.836 C 14.167 51.010,16.586 53.500,16.755 53.500 C 16.882 53.500,17.667 54.292,17.667 54.421 C 17.667 54.609,18.140 55.000,18.368 55.000 C 18.492 55.000,18.701 55.150,18.833 55.333 C 18.965 55.517,19.190 55.667,19.333 55.667 C 19.476 55.667,19.701 55.817,19.833 56.000 C 19.965 56.183,20.170 56.333,20.287 56.333 C 20.404 56.333,20.500 56.408,20.500 56.500 C 20.500 56.592,20.650 56.667,20.833 56.667 C 21.017 56.667,21.167 56.742,21.167 56.833 C 21.167 56.925,21.317 57.000,21.500 57.000 C 21.683 57.000,21.833 57.075,21.833 57.167 C 21.833 57.258,21.983 57.333,22.167 57.333 C 22.350 57.333,22.500 57.408,22.500 57.500 C 22.500 57.592,22.650 57.667,22.833 57.667 C 23.017 57.667,23.167 57.742,23.167 57.833 C 23.167 57.925,23.309 58.000,23.482 58.000 C 23.656 58.000,23.841 58.112,23.894 58.250 C 23.946 58.387,24.142 58.500,24.328 58.500 C 24.514 58.500,24.667 58.575,24.667 58.667 C 24.667 58.758,24.817 58.833,25.000 58.833 C 25.183 58.833,25.333 58.908,25.333 59.000 C 25.333 59.092,25.558 59.167,25.833 59.167 C 26.108 59.167,26.333 59.242,26.333 59.333 C 26.333 59.425,26.629 59.500,26.990 59.500 C 27.351 59.500,27.693 59.575,27.750 59.667 C 27.807 59.758,27.999 59.833,28.177 59.833 C 28.571 59.833,28.628 60.563,28.262 60.929 C 27.986 61.204,26.000 61.267,26.000 61.000 C 26.000 60.908,25.850 60.833,25.667 60.833 C 25.483 60.833,25.333 60.758,25.333 60.667 C 25.333 60.575,25.108 60.500,24.833 60.500 C 24.558 60.500,24.333 60.425,24.333 60.333 C 24.333 60.242,24.146 60.167,23.917 60.167 C 23.688 60.167,23.500 60.092,23.500 60.000 C 23.500 59.908,23.292 59.833,23.037 59.833 C 22.765 59.833,22.474 59.696,22.333 59.500 C 22.201 59.317,21.960 59.167,21.797 59.167 C 21.633 59.167,21.500 59.092,21.500 59.000 C 21.500 58.908,21.368 58.833,21.206 58.833 C 21.045 58.833,20.772 58.646,20.600 58.417 C 20.427 58.188,20.147 58.000,19.977 58.000 C 19.806 58.000,19.667 57.925,19.667 57.833 C 19.667 57.742,19.533 57.667,19.370 57.667 C 19.207 57.667,18.965 57.517,18.833 57.333 C 18.701 57.150,18.490 57.000,18.363 57.000 C 18.237 57.000,17.924 56.775,17.667 56.500 C 17.410 56.225,17.078 56.000,16.929 56.000 C 16.680 56.000,15.167 54.636,15.167 54.412 C 15.167 54.359,14.717 53.873,14.167 53.333 C 13.617 52.793,13.167 52.235,13.167 52.093 C 13.167 51.950,13.088 51.833,12.992 51.833 C 12.704 51.833,12.000 51.037,12.000 50.711 C 12.000 50.544,11.850 50.299,11.667 50.167 C 11.483 50.035,11.333 49.793,11.333 49.630 C 11.333 49.467,11.258 49.333,11.167 49.333 C 11.075 49.333,11.000 49.183,11.000 49.000 C 11.000 48.817,10.925 48.667,10.833 48.667 C 10.742 48.667,10.667 48.517,10.667 48.333 C 10.667 48.150,10.592 48.000,10.500 48.000 C 10.408 48.000,10.333 47.850,10.333 47.667 C 10.333 47.483,10.258 47.333,10.167 47.333 C 10.075 47.333,10.000 47.146,10.000 46.917 C 10.000 46.688,9.925 46.500,9.833 46.500 C 9.742 46.500,9.667 46.350,9.667 46.167 C 9.667 45.981,9.556 45.833,9.417 45.833 C 9.236 45.833,9.167 45.648,9.167 45.167 C 9.167 44.800,9.092 44.500,9.000 44.500 C 8.908 44.500,8.833 44.275,8.833 44.000 C 8.833 43.725,8.908 43.500,9.000 43.500 C 9.092 43.500,9.167 43.313,9.167 43.083 C 9.167 42.718,9.239 42.667,9.750 42.667 C 10.261 42.667,10.333 42.718,10.333 43.083 M111.667 45.480 C 111.434 45.607,110.445 45.847,105.750 46.918 C 96.110 49.117,77.903 49.860,55.920 48.953 C 45.708 48.531,38.262 49.864,37.894 52.179 C 37.681 53.520,39.050 54.101,40.702 53.372 C 41.512 53.015,43.848 52.446,45.583 52.183 C 48.944 51.675,50.233 51.622,54.582 51.810 C 65.612 52.289,67.979 52.338,76.417 52.267 C 85.138 52.194,86.561 52.139,93.500 51.599 C 99.598 51.125,101.578 50.840,107.000 49.658 C 112.963 48.358,113.832 48.055,114.142 47.167 C 114.587 45.890,112.955 44.778,111.667 45.480 M144.485 45.747 C 150.503 47.013,156.904 51.643,155.371 53.622 C 154.698 54.491,153.731 54.206,152.500 52.775 C 151.062 51.103,146.884 49.053,143.441 48.331 C 141.717 47.969,141.333 47.696,141.333 46.833 C 141.333 45.596,142.255 45.278,144.485 45.747 M113.429 46.071 C 113.702 46.345,113.748 46.833,113.500 46.833 C 113.408 46.833,113.333 47.021,113.333 47.250 C 113.333 47.615,113.261 47.667,112.750 47.667 C 112.429 47.667,112.167 47.742,112.167 47.833 C 112.167 47.925,111.867 48.000,111.500 48.000 C 111.133 48.000,110.833 48.075,110.833 48.167 C 110.833 48.258,110.608 48.333,110.333 48.333 C 110.058 48.333,109.833 48.408,109.833 48.500 C 109.833 48.592,109.421 48.667,108.917 48.667 C 108.412 48.667,108.000 48.742,108.000 48.833 C 108.000 48.926,107.556 49.000,107.000 49.000 C 106.444 49.000,106.000 49.074,106.000 49.167 C 106.000 49.258,105.737 49.333,105.417 49.333 C 105.096 49.333,104.833 49.408,104.833 49.500 C 104.833 49.592,104.458 49.667,104.000 49.667 C 103.542 49.667,103.167 49.742,103.167 49.833 C 103.167 49.925,102.754 50.000,102.250 50.000 C 101.746 50.000,101.333 50.075,101.333 50.167 C 101.333 50.265,100.722 50.333,99.833 50.333 C 98.611 50.333,98.333 50.380,98.333 50.583 C 98.333 50.793,97.981 50.833,96.167 50.833 C 94.833 50.833,94.000 50.897,94.000 51.000 C 94.000 51.102,93.194 51.167,91.917 51.167 C 90.639 51.167,89.833 51.231,89.833 51.333 C 89.833 51.438,88.806 51.500,87.083 51.500 C 85.361 51.500,84.333 51.562,84.333 51.667 C 84.333 51.776,80.944 51.833,74.500 51.833 C 68.056 51.833,64.667 51.776,64.667 51.667 C 64.667 51.559,62.944 51.500,59.833 51.500 C 56.722 51.500,55.000 51.441,55.000 51.333 C 55.000 51.228,53.722 51.167,51.500 51.167 C 49.278 51.167,48.000 51.228,48.000 51.333 C 48.000 51.431,47.417 51.500,46.583 51.500 C 45.750 51.500,45.167 51.569,45.167 51.667 C 45.167 51.759,44.722 51.833,44.167 51.833 C 43.611 51.833,43.167 51.907,43.167 52.000 C 43.167 52.092,42.829 52.167,42.417 52.167 C 42.004 52.167,41.667 52.242,41.667 52.333 C 41.667 52.425,41.442 52.500,41.167 52.500 C 40.892 52.500,40.667 52.575,40.667 52.667 C 40.667 52.758,40.517 52.833,40.333 52.833 C 40.150 52.833,40.000 52.908,40.000 53.000 C 40.000 53.092,39.775 53.167,39.500 53.167 C 39.225 53.167,39.000 53.092,39.000 53.000 C 39.000 52.908,38.887 52.833,38.750 52.833 C 38.583 52.833,38.500 52.667,38.500 52.333 C 38.500 52.000,38.583 51.833,38.750 51.833 C 38.887 51.833,39.000 51.758,39.000 51.667 C 39.000 51.575,39.150 51.500,39.333 51.500 C 39.517 51.500,39.667 51.425,39.667 51.333 C 39.667 51.242,39.892 51.167,40.167 51.167 C 40.500 51.167,40.667 51.083,40.667 50.917 C 40.667 50.750,40.833 50.667,41.167 50.667 C 41.442 50.667,41.667 50.592,41.667 50.500 C 41.667 50.408,42.004 50.333,42.417 50.333 C 42.829 50.333,43.167 50.258,43.167 50.167 C 43.167 50.075,43.542 50.000,44.000 50.000 C 44.458 50.000,44.833 49.925,44.833 49.833 C 44.833 49.735,45.417 49.667,46.250 49.667 C 47.083 49.667,47.667 49.598,47.667 49.500 C 47.667 49.393,49.472 49.333,52.750 49.333 C 56.028 49.333,57.833 49.393,57.833 49.500 C 57.833 49.606,59.278 49.667,61.833 49.667 C 64.389 49.667,65.833 49.727,65.833 49.833 C 65.833 49.925,66.133 50.000,66.500 50.000 C 66.867 50.000,67.167 49.925,67.167 49.833 C 67.167 49.737,67.694 49.667,68.417 49.667 C 69.139 49.667,69.667 49.737,69.667 49.833 C 69.667 49.925,69.967 50.000,70.333 50.000 C 70.700 50.000,71.000 49.925,71.000 49.833 C 71.000 49.731,71.806 49.667,73.083 49.667 C 74.361 49.667,75.167 49.731,75.167 49.833 C 75.167 50.087,77.617 50.048,77.736 49.792 C 77.814 49.625,77.853 49.625,77.931 49.792 C 78.053 50.053,82.167 50.093,82.167 49.833 C 82.167 49.728,83.389 49.667,85.500 49.667 C 87.611 49.667,88.833 49.606,88.833 49.500 C 88.833 49.397,89.694 49.333,91.083 49.333 C 92.472 49.333,93.333 49.270,93.333 49.167 C 93.333 49.064,94.194 49.000,95.583 49.000 C 96.972 49.000,97.833 48.936,97.833 48.833 C 97.833 48.734,98.472 48.667,99.417 48.667 C 100.361 48.667,101.000 48.599,101.000 48.500 C 101.000 48.408,101.412 48.333,101.917 48.333 C 102.421 48.333,102.833 48.258,102.833 48.167 C 102.833 48.075,103.208 48.000,103.667 48.000 C 104.125 48.000,104.500 47.925,104.500 47.833 C 104.500 47.742,104.837 47.667,105.250 47.667 C 105.662 47.667,106.000 47.592,106.000 47.500 C 106.000 47.408,106.375 47.333,106.833 47.333 C 107.463 47.333,107.667 47.272,107.667 47.083 C 107.667 46.891,107.880 46.833,108.583 46.833 C 109.087 46.833,109.500 46.758,109.500 46.667 C 109.500 46.575,109.800 46.500,110.167 46.500 C 110.533 46.500,110.833 46.425,110.833 46.333 C 110.833 46.242,111.058 46.167,111.333 46.167 C 111.608 46.167,111.833 46.092,111.833 46.000 C 111.833 45.743,113.160 45.803,113.429 46.071 M346.083 46.667 C 346.027 46.758,345.685 46.833,345.323 46.833 C 344.851 46.833,344.667 46.903,344.667 47.083 C 344.667 47.250,344.500 47.333,344.167 47.333 C 343.892 47.333,343.667 47.408,343.667 47.500 C 343.667 47.592,343.329 47.667,342.917 47.667 C 342.504 47.667,342.167 47.742,342.167 47.833 C 342.167 47.925,342.017 48.000,341.833 48.000 C 341.650 48.000,341.500 48.075,341.500 48.167 C 341.500 48.258,341.275 48.333,341.000 48.333 C 340.725 48.333,340.500 48.408,340.500 48.500 C 340.500 48.592,340.275 48.667,340.000 48.667 C 339.725 48.667,339.500 48.742,339.500 48.833 C 339.500 48.925,339.162 49.000,338.750 49.000 C 338.337 49.000,338.000 49.075,338.000 49.167 C 338.000 49.258,337.700 49.333,337.333 49.333 C 336.967 49.333,336.667 49.408,336.667 49.500 C 336.667 49.592,336.367 49.667,336.000 49.667 C 335.633 49.667,335.333 49.742,335.333 49.833 C 335.333 49.925,334.996 50.000,334.583 50.000 C 334.171 50.000,333.833 50.075,333.833 50.167 C 333.833 50.258,333.533 50.333,333.167 50.333 C 332.685 50.333,332.500 50.403,332.500 50.583 C 332.500 50.780,332.269 50.833,331.417 50.833 C 330.806 50.833,330.333 50.906,330.333 51.000 C 330.333 51.092,329.958 51.167,329.500 51.167 C 329.042 51.167,328.667 51.242,328.667 51.333 C 328.667 51.425,328.254 51.500,327.750 51.500 C 327.246 51.500,326.833 51.575,326.833 51.667 C 326.833 51.758,326.458 51.833,326.000 51.833 C 325.542 51.833,325.167 51.908,325.167 52.000 C 325.167 52.094,324.694 52.167,324.083 52.167 C 323.472 52.167,323.000 52.239,323.000 52.333 C 323.000 52.425,322.700 52.500,322.333 52.500 C 321.967 52.500,321.667 52.575,321.667 52.667 C 321.667 52.758,321.254 52.833,320.750 52.833 C 320.246 52.833,319.833 52.908,319.833 53.000 C 319.833 53.093,319.389 53.167,318.833 53.167 C 318.278 53.167,317.833 53.241,317.833 53.333 C 317.833 53.425,317.421 53.500,316.917 53.500 C 316.412 53.500,316.000 53.575,316.000 53.667 C 316.000 53.759,315.556 53.833,315.000 53.833 C 314.444 53.833,314.000 53.907,314.000 54.000 C 314.000 54.094,313.528 54.167,312.917 54.167 C 312.065 54.167,311.833 54.220,311.833 54.417 C 311.833 54.615,311.593 54.667,310.667 54.667 C 310.000 54.667,309.500 54.738,309.500 54.833 C 309.500 54.931,308.917 55.000,308.083 55.000 C 307.250 55.000,306.667 55.069,306.667 55.167 C 306.667 55.266,306.028 55.333,305.083 55.333 C 304.139 55.333,303.500 55.401,303.500 55.500 C 303.500 55.598,302.917 55.667,302.083 55.667 C 301.250 55.667,300.667 55.735,300.667 55.833 C 300.667 55.933,300.028 56.000,299.083 56.000 C 298.139 56.000,297.500 56.067,297.500 56.167 C 297.500 56.262,297.000 56.333,296.333 56.333 C 295.667 56.333,295.167 56.405,295.167 56.500 C 295.167 56.601,294.417 56.667,293.250 56.667 C 292.083 56.667,291.333 56.732,291.333 56.833 C 291.333 56.935,290.583 57.000,289.417 57.000 C 288.250 57.000,287.500 57.065,287.500 57.167 C 287.500 57.270,286.611 57.333,285.167 57.333 C 283.722 57.333,282.833 57.397,282.833 57.500 C 282.833 57.604,281.806 57.667,280.083 57.667 C 278.361 57.667,277.333 57.729,277.333 57.833 C 277.333 57.938,276.304 58.000,274.578 58.000 C 272.283 58.000,271.807 58.042,271.727 58.250 C 271.643 58.470,269.526 58.500,254.066 58.500 C 242.466 58.500,236.500 58.557,236.500 58.667 C 236.500 58.776,231.722 58.833,222.500 58.833 C 213.278 58.833,208.500 58.776,208.500 58.667 C 208.500 58.562,207.472 58.500,205.750 58.500 C 203.417 58.500,203.000 58.462,203.000 58.250 C 203.000 58.036,202.519 58.000,199.667 58.000 C 197.556 58.000,196.333 57.939,196.333 57.833 C 196.333 57.735,195.750 57.667,194.917 57.667 C 194.083 57.667,193.500 57.598,193.500 57.500 C 193.500 57.405,193.000 57.333,192.333 57.333 C 191.667 57.333,191.167 57.262,191.167 57.167 C 191.167 57.075,190.829 57.000,190.417 57.000 C 190.004 57.000,189.667 56.925,189.667 56.833 C 189.667 56.742,189.442 56.667,189.167 56.667 C 188.892 56.667,188.667 56.742,188.667 56.833 C 188.667 56.925,188.551 57.000,188.409 57.000 C 188.267 57.000,187.967 57.184,187.742 57.409 C 186.899 58.252,187.384 60.500,188.409 60.500 C 188.551 60.500,188.667 60.575,188.667 60.667 C 188.667 60.758,189.042 60.833,189.500 60.833 C 189.958 60.833,190.333 60.908,190.333 61.000 C 190.333 61.094,190.806 61.167,191.417 61.167 C 192.028 61.167,192.500 61.239,192.500 61.333 C 192.500 61.433,193.139 61.500,194.083 61.500 C 195.028 61.500,195.667 61.567,195.667 61.667 C 195.667 61.771,196.744 61.833,198.566 61.833 C 200.988 61.833,201.480 61.874,201.560 62.083 C 201.640 62.291,202.098 62.333,204.245 62.333 C 205.859 62.333,206.833 62.396,206.833 62.500 C 206.833 62.610,212.306 62.667,222.917 62.667 C 233.528 62.667,239.000 62.610,239.000 62.500 C 239.000 62.390,244.917 62.333,256.417 62.333 C 271.787 62.333,273.833 62.304,273.833 62.083 C 273.833 61.874,274.176 61.833,275.917 61.833 C 277.194 61.833,278.000 61.769,278.000 61.667 C 278.000 61.562,279.111 61.500,281.000 61.500 C 282.889 61.500,284.000 61.438,284.000 61.333 C 284.000 61.230,284.861 61.167,286.250 61.167 C 287.639 61.167,288.500 61.103,288.500 61.000 C 288.500 60.899,289.194 60.833,290.250 60.833 C 291.306 60.833,292.000 60.767,292.000 60.667 C 292.000 60.565,292.750 60.500,293.917 60.500 C 295.083 60.500,295.833 60.435,295.833 60.333 C 295.833 60.235,296.417 60.167,297.250 60.167 C 298.083 60.167,298.667 60.098,298.667 60.000 C 298.667 59.903,299.222 59.833,300.000 59.833 C 300.778 59.833,301.333 59.764,301.333 59.667 C 301.333 59.569,301.917 59.500,302.750 59.500 C 303.583 59.500,304.167 59.431,304.167 59.333 C 304.167 59.234,304.806 59.167,305.750 59.167 C 306.694 59.167,307.333 59.099,307.333 59.000 C 307.333 58.901,307.972 58.833,308.917 58.833 C 309.861 58.833,310.500 58.766,310.500 58.667 C 310.500 58.574,310.944 58.500,311.500 58.500 C 312.278 58.500,312.500 58.444,312.500 58.250 C 312.500 58.050,312.750 58.000,313.750 58.000 C 314.472 58.000,315.000 57.930,315.000 57.833 C 315.000 57.739,315.472 57.667,316.083 57.667 C 316.694 57.667,317.167 57.594,317.167 57.500 C 317.167 57.407,317.611 57.333,318.167 57.333 C 318.722 57.333,319.167 57.259,319.167 57.167 C 319.167 57.075,319.579 57.000,320.083 57.000 C 320.587 57.000,321.000 56.925,321.000 56.833 C 321.000 56.742,321.375 56.667,321.833 56.667 C 322.292 56.667,322.667 56.592,322.667 56.500 C 322.667 56.408,323.079 56.333,323.583 56.333 C 324.087 56.333,324.500 56.258,324.500 56.167 C 324.500 56.075,324.875 56.000,325.333 56.000 C 325.792 56.000,326.167 55.925,326.167 55.833 C 326.167 55.742,326.579 55.667,327.083 55.667 C 327.587 55.667,328.000 55.592,328.000 55.500 C 328.000 55.408,328.375 55.333,328.833 55.333 C 329.292 55.333,329.667 55.258,329.667 55.167 C 329.667 55.075,330.042 55.000,330.500 55.000 C 330.958 55.000,331.333 54.925,331.333 54.833 C 331.333 54.742,331.746 54.667,332.250 54.667 C 332.954 54.667,333.167 54.609,333.167 54.417 C 333.167 54.228,333.370 54.167,334.000 54.167 C 334.458 54.167,334.833 54.092,334.833 54.000 C 334.833 53.908,335.246 53.833,335.750 53.833 C 336.254 53.833,336.667 53.758,336.667 53.667 C 336.667 53.575,336.892 53.500,337.167 53.500 C 337.442 53.500,337.667 53.425,337.667 53.333 C 337.667 53.242,338.004 53.167,338.417 53.167 C 338.829 53.167,339.167 53.092,339.167 53.000 C 339.167 52.908,339.467 52.833,339.833 52.833 C 340.200 52.833,340.500 52.758,340.500 52.667 C 340.500 52.575,340.725 52.500,341.000 52.500 C 341.275 52.500,341.500 52.425,341.500 52.333 C 341.500 52.242,341.725 52.167,342.000 52.167 C 342.275 52.167,342.500 52.092,342.500 52.000 C 342.500 51.908,342.762 51.833,343.083 51.833 C 343.404 51.833,343.667 51.758,343.667 51.667 C 343.667 51.575,343.892 51.500,344.167 51.500 C 344.442 51.500,344.667 51.425,344.667 51.333 C 344.667 51.242,344.892 51.167,345.167 51.167 C 345.500 51.167,345.667 51.083,345.667 50.917 C 345.667 50.742,345.843 50.667,346.250 50.667 C 346.571 50.667,346.833 50.592,346.833 50.500 C 346.833 50.408,346.951 50.333,347.095 50.333 C 347.432 50.333,347.833 49.932,347.833 49.595 C 347.833 49.451,347.908 49.333,348.000 49.333 C 348.092 49.333,348.167 49.033,348.167 48.667 C 348.167 48.300,348.092 48.000,348.000 48.000 C 347.908 48.000,347.833 47.888,347.833 47.752 C 347.833 47.431,347.321 46.833,347.046 46.833 C 346.929 46.833,346.833 46.758,346.833 46.667 C 346.833 46.575,346.688 46.500,346.510 46.500 C 346.332 46.500,346.140 46.575,346.083 46.667 M347.031 47.812 C 348.519 49.249,345.961 50.616,337.816 52.735 C 335.102 53.442,318.257 56.827,315.417 57.237 C 315.050 57.290,313.587 57.514,312.167 57.734 C 310.746 57.954,308.833 58.217,307.917 58.318 C 305.044 58.634,300.683 59.152,298.083 59.486 C 296.708 59.663,294.646 59.890,293.500 59.991 C 292.354 60.091,290.629 60.247,289.667 60.338 C 286.633 60.622,284.009 60.824,281.083 60.998 C 279.525 61.091,276.750 61.288,274.917 61.437 C 271.676 61.699,260.033 61.823,236.211 61.849 C 232.260 61.853,229.466 61.920,229.410 62.012 C 229.284 62.215,212.858 62.210,209.667 62.005 C 208.338 61.919,205.112 61.735,202.500 61.596 C 194.798 61.185,190.184 60.654,188.839 60.021 C 187.735 59.503,187.528 58.317,188.438 57.721 C 188.905 57.415,188.554 57.387,192.902 58.078 C 194.816 58.383,197.779 58.611,202.667 58.829 C 204.821 58.926,207.558 59.084,208.750 59.181 C 211.008 59.365,219.812 59.335,254.583 59.027 C 264.758 58.937,274.021 58.784,275.167 58.687 C 276.313 58.589,278.975 58.393,281.083 58.249 C 287.130 57.838,296.823 56.978,298.000 56.748 C 298.438 56.663,301.327 56.299,304.000 55.993 C 310.003 55.305,313.938 54.752,317.167 54.145 C 322.829 53.079,326.296 52.400,329.917 51.647 C 331.200 51.380,332.694 51.085,333.236 50.990 C 335.061 50.670,339.728 49.397,342.833 48.371 C 345.986 47.329,346.465 47.265,347.031 47.812 M150.942 52.260 C 151.177 52.495,151.328 52.728,151.278 52.778 C 151.187 52.868,150.333 52.097,150.333 51.924 C 150.333 51.738,150.527 51.845,150.942 52.260 M343.000 53.667 C 343.000 53.758,342.738 53.833,342.417 53.833 C 342.096 53.833,341.833 53.908,341.833 54.000 C 341.833 54.092,341.608 54.167,341.333 54.167 C 341.000 54.167,340.833 54.250,340.833 54.417 C 340.833 54.579,340.671 54.667,340.370 54.667 C 340.098 54.667,339.808 54.804,339.667 55.000 C 339.535 55.183,339.255 55.333,339.047 55.333 C 338.838 55.333,338.667 55.408,338.667 55.500 C 338.667 55.592,338.517 55.667,338.333 55.667 C 338.111 55.667,338.000 55.778,338.000 56.000 C 338.000 56.192,337.889 56.333,337.738 56.333 C 337.431 56.333,337.000 56.725,337.000 57.005 C 337.000 57.112,336.775 57.410,336.500 57.667 C 336.152 57.991,336.000 58.291,336.000 58.650 C 336.000 58.934,335.925 59.167,335.833 59.167 C 335.734 59.167,335.667 59.806,335.667 60.750 C 335.667 61.694,335.734 62.333,335.833 62.333 C 335.925 62.333,336.000 62.467,336.000 62.630 C 336.000 62.793,336.150 63.035,336.333 63.167 C 336.517 63.299,336.667 63.540,336.667 63.703 C 336.667 63.889,336.792 64.000,337.000 64.000 C 337.183 64.000,337.333 64.075,337.333 64.167 C 337.333 64.258,337.467 64.333,337.630 64.333 C 337.793 64.333,338.035 64.483,338.167 64.667 C 338.355 64.928,338.598 65.000,339.287 65.000 C 339.771 65.000,340.167 65.075,340.167 65.167 C 340.167 65.267,340.861 65.333,341.917 65.333 C 342.972 65.333,343.667 65.267,343.667 65.167 C 343.667 65.075,343.967 65.000,344.333 65.000 C 344.700 65.000,345.000 64.925,345.000 64.833 C 345.000 64.742,345.225 64.667,345.500 64.667 C 345.775 64.667,346.000 64.592,346.000 64.500 C 346.000 64.408,346.188 64.333,346.417 64.333 C 346.646 64.333,346.833 64.258,346.833 64.167 C 346.833 64.075,346.983 64.000,347.167 64.000 C 347.350 64.000,347.500 63.925,347.500 63.833 C 347.500 63.742,347.633 63.667,347.797 63.667 C 347.960 63.667,348.201 63.517,348.333 63.333 C 348.465 63.150,348.673 63.000,348.794 63.000 C 349.056 63.000,349.833 62.258,349.833 62.008 C 349.833 61.912,349.914 61.833,350.012 61.833 C 350.263 61.833,350.667 61.401,350.667 61.132 C 350.667 61.008,350.817 60.799,351.000 60.667 C 351.196 60.526,351.333 60.235,351.333 59.963 C 351.333 59.708,351.408 59.500,351.500 59.500 C 351.855 59.500,351.702 56.432,351.333 56.167 C 351.150 56.035,351.000 55.827,351.000 55.706 C 351.000 55.444,350.258 54.667,350.008 54.667 C 349.912 54.667,349.833 54.554,349.833 54.417 C 349.833 54.250,349.667 54.167,349.333 54.167 C 349.058 54.167,348.833 54.092,348.833 54.000 C 348.833 53.908,348.683 53.833,348.500 53.833 C 348.317 53.833,348.167 53.758,348.167 53.667 C 348.167 53.563,347.194 53.500,345.583 53.500 C 343.972 53.500,343.000 53.563,343.000 53.667 M348.774 54.678 C 351.636 56.044,351.918 59.075,349.417 61.587 C 344.044 66.980,334.266 65.091,336.511 59.093 C 337.916 55.337,344.892 52.825,348.774 54.678 M300.333 61.000 C 300.333 61.092,300.033 61.167,299.667 61.167 C 299.300 61.167,299.000 61.242,299.000 61.333 C 299.000 61.425,298.850 61.500,298.667 61.500 C 298.483 61.500,298.333 61.575,298.333 61.667 C 298.333 61.758,298.181 61.833,297.995 61.833 C 297.809 61.833,297.613 61.946,297.560 62.083 C 297.508 62.221,297.339 62.333,297.186 62.333 C 297.032 62.333,296.799 62.483,296.667 62.667 C 296.535 62.850,296.327 63.000,296.206 63.000 C 295.921 63.000,295.167 63.752,295.167 64.036 C 295.167 64.156,294.979 64.395,294.750 64.567 C 294.521 64.739,294.333 64.982,294.333 65.107 C 294.333 65.231,294.258 65.333,294.167 65.333 C 294.065 65.333,294.000 66.083,294.000 67.250 C 294.000 68.417,294.065 69.167,294.167 69.167 C 294.258 69.167,294.333 69.275,294.333 69.407 C 294.333 69.734,296.250 71.667,296.574 71.667 C 296.717 71.667,296.833 71.742,296.833 71.833 C 296.833 71.925,296.983 72.000,297.167 72.000 C 297.350 72.000,297.500 72.075,297.500 72.167 C 297.500 72.258,297.762 72.333,298.083 72.333 C 298.404 72.333,298.667 72.408,298.667 72.500 C 298.667 72.604,299.639 72.667,301.250 72.667 C 302.861 72.667,303.833 72.604,303.833 72.500 C 303.833 72.408,304.133 72.333,304.500 72.333 C 304.867 72.333,305.167 72.258,305.167 72.167 C 305.167 72.075,305.338 72.000,305.547 72.000 C 305.755 72.000,306.035 71.850,306.167 71.667 C 306.299 71.483,306.540 71.333,306.703 71.333 C 306.867 71.333,307.000 71.258,307.000 71.167 C 307.000 71.075,307.114 71.000,307.254 71.000 C 307.537 71.000,309.000 69.607,309.000 69.338 C 309.000 69.244,309.112 69.167,309.250 69.167 C 309.389 69.167,309.500 69.019,309.500 68.833 C 309.500 68.650,309.575 68.500,309.667 68.500 C 309.758 68.500,309.833 68.350,309.833 68.167 C 309.833 67.983,309.908 67.833,310.000 67.833 C 310.101 67.833,310.167 67.139,310.167 66.083 C 310.167 65.028,310.101 64.333,310.000 64.333 C 309.908 64.333,309.833 64.215,309.833 64.071 C 309.833 63.815,309.457 63.333,309.256 63.333 C 309.084 63.333,308.000 62.187,308.000 62.006 C 308.000 61.911,307.850 61.833,307.667 61.833 C 307.483 61.833,307.333 61.758,307.333 61.667 C 307.333 61.575,307.183 61.500,307.000 61.500 C 306.817 61.500,306.667 61.425,306.667 61.333 C 306.667 61.242,306.442 61.167,306.167 61.167 C 305.892 61.167,305.667 61.092,305.667 61.000 C 305.667 60.896,304.667 60.833,303.000 60.833 C 301.333 60.833,300.333 60.896,300.333 61.000 M306.149 61.855 C 310.783 63.574,310.669 68.447,305.935 71.075 C 299.040 74.902,291.055 69.112,296.159 63.987 C 297.520 62.620,298.657 62.049,301.250 61.431 C 302.162 61.214,305.109 61.469,306.149 61.855 M258.500 64.500 C 258.500 64.594,258.028 64.667,257.417 64.667 C 256.806 64.667,256.333 64.739,256.333 64.833 C 256.333 64.925,256.183 65.000,256.000 65.000 C 255.817 65.000,255.667 65.075,255.667 65.167 C 255.667 65.258,255.442 65.333,255.167 65.333 C 254.892 65.333,254.667 65.408,254.667 65.500 C 254.667 65.592,254.552 65.667,254.411 65.667 C 254.271 65.667,254.113 65.779,254.060 65.917 C 254.008 66.054,253.785 66.167,253.566 66.167 C 253.314 66.167,253.167 66.263,253.167 66.429 C 253.167 66.765,252.765 67.167,252.429 67.167 C 252.278 67.167,252.167 67.308,252.167 67.500 C 252.167 67.683,252.092 67.833,252.000 67.833 C 251.908 67.833,251.833 67.983,251.833 68.167 C 251.833 68.350,251.758 68.500,251.667 68.500 C 251.575 68.500,251.500 68.912,251.500 69.417 C 251.500 69.921,251.425 70.333,251.333 70.333 C 251.242 70.333,251.167 70.483,251.167 70.667 C 251.167 70.850,251.242 71.000,251.333 71.000 C 251.425 71.000,251.500 71.283,251.500 71.630 C 251.500 72.069,251.601 72.333,251.833 72.500 C 252.017 72.632,252.167 72.877,252.167 73.044 C 252.167 73.399,252.881 74.167,253.211 74.167 C 253.335 74.167,253.598 74.317,253.795 74.500 C 253.992 74.683,254.268 74.833,254.410 74.833 C 254.551 74.833,254.667 74.908,254.667 75.000 C 254.667 75.092,254.817 75.167,255.000 75.167 C 255.183 75.167,255.333 75.242,255.333 75.333 C 255.333 75.425,255.558 75.500,255.833 75.500 C 256.108 75.500,256.333 75.575,256.333 75.667 C 256.333 75.772,257.500 75.833,259.500 75.833 C 261.500 75.833,262.667 75.772,262.667 75.667 C 262.667 75.575,262.892 75.500,263.167 75.500 C 263.442 75.500,263.667 75.425,263.667 75.333 C 263.667 75.242,263.817 75.167,264.000 75.167 C 264.183 75.167,264.333 75.092,264.333 75.000 C 264.333 74.908,264.521 74.833,264.750 74.833 C 264.979 74.833,265.167 74.758,265.167 74.667 C 265.167 74.575,265.300 74.500,265.463 74.500 C 265.626 74.500,265.868 74.350,266.000 74.167 C 266.132 73.983,266.374 73.833,266.537 73.833 C 266.727 73.833,266.833 73.708,266.833 73.484 C 266.833 73.291,267.058 72.924,267.333 72.667 C 267.641 72.379,267.833 72.033,267.833 71.766 C 267.833 71.528,267.908 71.333,268.000 71.333 C 268.094 71.333,268.167 70.861,268.167 70.250 C 268.167 69.639,268.094 69.167,268.000 69.167 C 267.908 69.167,267.833 68.897,267.833 68.567 C 267.833 68.115,267.710 67.852,267.333 67.500 C 267.058 67.243,266.833 66.913,266.833 66.766 C 266.833 66.620,266.700 66.500,266.537 66.500 C 266.374 66.500,266.130 66.346,265.995 66.159 C 265.691 65.735,264.910 65.333,264.391 65.333 C 264.176 65.333,264.000 65.258,264.000 65.167 C 264.000 65.075,263.850 65.000,263.667 65.000 C 263.483 65.000,263.333 64.925,263.333 64.833 C 263.333 64.741,262.889 64.667,262.333 64.667 C 261.778 64.667,261.333 64.593,261.333 64.500 C 261.333 64.402,260.750 64.333,259.917 64.333 C 259.083 64.333,258.500 64.402,258.500 64.500 M215.500 65.167 C 215.500 65.258,215.125 65.333,214.667 65.333 C 214.208 65.333,213.833 65.408,213.833 65.500 C 213.833 65.592,213.649 65.667,213.424 65.667 C 213.199 65.667,212.828 65.854,212.598 66.083 C 212.369 66.313,212.027 66.500,211.837 66.500 C 211.439 66.500,209.667 68.198,209.667 68.580 C 209.667 68.719,209.592 68.833,209.500 68.833 C 209.408 68.833,209.333 69.021,209.333 69.250 C 209.333 69.509,209.239 69.667,209.083 69.667 C 208.917 69.667,208.833 69.833,208.833 70.167 C 208.833 70.442,208.758 70.667,208.667 70.667 C 208.575 70.667,208.500 71.042,208.500 71.500 C 208.500 71.958,208.575 72.333,208.667 72.333 C 208.758 72.333,208.833 72.561,208.833 72.839 C 208.833 73.134,208.937 73.384,209.083 73.440 C 209.221 73.492,209.333 73.642,209.333 73.771 C 209.333 74.088,211.428 76.167,211.747 76.167 C 211.886 76.167,212.000 76.242,212.000 76.333 C 212.000 76.425,212.262 76.500,212.583 76.500 C 212.904 76.500,213.167 76.575,213.167 76.667 C 213.167 76.758,213.317 76.833,213.500 76.833 C 213.697 76.833,213.833 76.944,213.833 77.105 C 213.833 77.339,214.014 77.366,215.160 77.299 C 216.166 77.241,216.506 77.276,216.571 77.445 C 216.683 77.736,218.000 77.749,218.000 77.458 C 217.999 77.309,218.280 77.266,219.000 77.306 C 219.826 77.353,220.000 77.317,220.000 77.098 C 220.000 76.907,220.161 76.833,220.583 76.833 C 220.904 76.833,221.167 76.758,221.167 76.667 C 221.167 76.575,221.392 76.500,221.667 76.500 C 221.942 76.500,222.167 76.425,222.167 76.333 C 222.167 76.242,222.300 76.167,222.463 76.167 C 222.626 76.167,222.868 76.017,223.000 75.833 C 223.132 75.650,223.374 75.500,223.537 75.500 C 223.700 75.500,223.833 75.425,223.833 75.333 C 223.833 75.242,223.912 75.167,224.008 75.167 C 224.258 75.167,225.000 74.389,225.000 74.128 C 225.000 74.006,225.150 73.799,225.333 73.667 C 225.550 73.510,225.667 73.235,225.667 72.880 C 225.667 72.579,225.742 72.333,225.833 72.333 C 225.929 72.333,226.000 71.833,226.000 71.167 C 226.000 70.500,225.929 70.000,225.833 70.000 C 225.742 70.000,225.667 69.737,225.667 69.417 C 225.667 69.096,225.592 68.833,225.500 68.833 C 225.408 68.833,225.333 68.718,225.333 68.578 C 225.333 68.314,224.283 67.167,224.042 67.167 C 223.968 67.167,223.799 67.017,223.667 66.833 C 223.535 66.650,223.293 66.500,223.130 66.500 C 222.967 66.500,222.833 66.425,222.833 66.333 C 222.833 66.242,222.691 66.167,222.518 66.167 C 222.344 66.167,222.159 66.054,222.106 65.917 C 222.054 65.779,221.896 65.667,221.755 65.667 C 221.615 65.667,221.500 65.592,221.500 65.500 C 221.500 65.408,221.088 65.333,220.583 65.333 C 220.079 65.333,219.667 65.258,219.667 65.167 C 219.667 65.064,218.861 65.000,217.583 65.000 C 216.306 65.000,215.500 65.064,215.500 65.167 M263.317 65.588 C 268.021 67.074,269.059 71.319,265.329 73.810 C 261.100 76.634,253.581 75.471,252.176 71.775 C 250.492 67.345,257.159 63.643,263.317 65.588 M220.199 65.995 C 226.770 67.651,227.209 73.658,220.942 76.167 C 216.712 77.861,211.307 76.448,209.737 73.238 C 207.544 68.756,213.845 64.394,220.199 65.995 " stroke="none" fill="#bbbbbb" fill-rule="evenodd"></path><path id="path1" d="M71.667 21.509 C 70.796 21.586,66.371 21.690,61.833 21.739 C 49.755 21.872,29.007 22.381,28.000 22.570 C 27.771 22.614,26.721 22.771,25.667 22.920 C 15.523 24.356,13.935 24.796,11.095 26.966 C 6.598 30.402,5.058 33.777,4.879 40.594 C 4.738 45.927,6.009 49.705,9.415 54.083 C 12.984 58.671,20.306 62.968,27.437 64.662 C 30.188 65.315,30.264 65.283,33.316 62.188 C 37.382 58.065,41.350 56.619,48.667 56.596 C 51.719 56.586,52.271 56.637,59.250 57.587 C 61.824 57.937,72.381 58.092,77.083 57.849 C 81.986 57.595,84.351 57.371,89.583 56.669 C 90.958 56.484,93.511 56.184,95.255 56.002 C 97.000 55.821,100.112 55.444,102.172 55.164 C 104.231 54.885,106.779 54.541,107.833 54.400 C 108.888 54.260,111.025 53.891,112.583 53.581 C 116.264 52.850,119.139 52.391,121.417 52.171 C 122.425 52.074,124.375 51.864,125.750 51.705 C 130.174 51.195,141.366 51.376,143.150 51.988 C 146.000 52.965,149.272 55.208,150.851 57.266 C 153.262 60.407,155.002 64.447,156.806 71.083 C 157.080 72.092,157.489 73.554,157.714 74.333 C 157.940 75.112,158.290 76.462,158.492 77.333 C 159.355 81.058,159.668 81.571,161.167 81.718 C 161.671 81.767,162.683 81.918,163.417 82.052 C 164.234 82.201,166.493 82.338,169.250 82.405 C 171.725 82.465,174.912 82.584,176.333 82.671 C 188.118 83.390,191.433 83.525,205.750 83.873 C 217.876 84.167,242.748 83.968,252.083 83.502 C 253.733 83.420,257.408 83.347,260.250 83.341 C 266.507 83.327,274.257 82.950,281.083 82.326 C 287.173 81.771,306.089 79.124,315.083 77.569 C 320.233 76.678,327.176 75.344,332.876 74.150 C 340.999 72.448,348.245 70.337,357.583 66.952 C 361.833 65.412,368.255 62.963,369.250 62.503 C 369.433 62.418,370.408 62.014,371.417 61.605 C 372.425 61.196,373.738 60.639,374.333 60.368 C 374.929 60.096,376.092 59.571,376.917 59.201 C 389.541 53.545,397.681 48.464,397.252 46.509 C 397.010 45.408,392.072 43.509,386.833 42.503 C 386.238 42.388,383.912 41.901,381.667 41.420 C 379.421 40.938,376.683 40.380,375.583 40.179 C 374.483 39.978,373.246 39.747,372.833 39.666 C 372.421 39.585,371.146 39.359,370.000 39.162 C 368.854 38.966,366.754 38.590,365.333 38.327 C 363.912 38.063,361.887 37.732,360.833 37.590 C 359.779 37.449,358.429 37.260,357.833 37.170 C 357.238 37.081,356.188 36.965,355.500 36.913 C 354.813 36.861,353.313 36.710,352.167 36.577 C 349.784 36.300,348.176 36.124,343.833 35.664 C 342.137 35.484,340.075 35.260,339.250 35.167 C 337.312 34.947,325.894 33.724,323.833 33.515 C 322.962 33.427,319.850 33.090,316.917 32.767 C 304.412 31.389,300.628 30.990,298.583 30.833 C 296.101 30.642,295.613 30.555,295.753 30.328 C 295.879 30.124,295.620 30.116,295.408 30.317 C 295.315 30.406,294.564 30.410,293.583 30.326 C 292.667 30.248,288.542 30.103,284.417 30.004 C 280.292 29.905,272.867 29.717,267.917 29.587 C 262.967 29.456,255.767 29.270,251.917 29.172 C 248.067 29.075,243.604 28.921,242.000 28.831 C 240.396 28.740,237.246 28.592,235.000 28.501 C 232.754 28.410,229.079 28.258,226.833 28.163 C 218.805 27.825,201.944 27.161,197.305 27.001 C 194.708 26.911,190.108 26.724,187.083 26.585 C 184.058 26.446,178.021 26.181,173.667 25.995 C 169.313 25.809,164.100 25.583,162.083 25.491 C 160.067 25.400,156.842 25.255,154.917 25.168 C 143.107 24.635,134.621 24.310,129.212 24.185 C 125.816 24.107,122.962 23.996,122.870 23.940 C 122.779 23.883,120.764 23.761,118.393 23.668 C 116.023 23.576,112.771 23.390,111.167 23.256 C 107.967 22.988,103.256 22.766,95.083 22.497 C 92.150 22.400,88.362 22.214,86.667 22.084 C 79.657 21.544,73.807 21.319,71.667 21.509 M145.750 27.500 C 147.675 27.586,150.900 27.733,152.917 27.828 C 154.933 27.922,160.071 28.149,164.333 28.333 C 168.596 28.516,174.633 28.780,177.750 28.919 C 189.368 29.435,195.096 29.675,201.667 29.919 C 205.379 30.057,210.179 30.242,212.333 30.331 C 214.487 30.419,218.162 30.569,220.500 30.663 C 222.838 30.757,226.550 30.909,228.750 31.001 C 230.950 31.092,234.100 31.207,235.750 31.255 C 237.400 31.303,239.237 31.415,239.833 31.502 C 240.429 31.589,244.179 31.739,248.167 31.834 C 277.590 32.534,293.565 33.017,293.804 33.214 C 293.967 33.347,294.062 33.336,294.164 33.172 C 294.278 32.986,294.620 32.994,296.193 33.223 C 297.232 33.374,299.546 33.649,301.333 33.834 C 303.121 34.019,304.866 34.209,305.211 34.255 C 305.556 34.301,307.281 34.485,309.044 34.665 C 310.807 34.845,312.887 35.070,313.667 35.164 C 315.428 35.378,317.520 35.603,320.750 35.926 C 322.125 36.064,324.525 36.322,326.083 36.501 C 327.642 36.679,329.704 36.906,330.667 37.005 C 331.629 37.104,333.017 37.254,333.750 37.339 C 334.483 37.425,335.533 37.532,336.083 37.578 C 336.633 37.625,337.983 37.775,339.083 37.912 C 340.183 38.050,341.833 38.234,342.750 38.321 C 343.667 38.409,345.842 38.638,347.583 38.831 C 349.325 39.024,351.725 39.289,352.917 39.420 C 359.568 40.150,362.145 40.504,365.667 41.171 C 367.631 41.542,375.030 42.897,377.100 43.263 C 377.842 43.395,379.755 43.793,381.350 44.149 C 382.945 44.504,384.550 44.845,384.917 44.905 C 386.900 45.232,392.371 46.719,392.792 47.046 C 393.153 47.327,393.032 47.474,391.708 48.354 C 385.619 52.406,374.341 57.727,362.083 62.333 C 360.342 62.987,358.429 63.716,357.833 63.952 C 355.995 64.681,349.727 66.812,346.833 67.692 C 338.293 70.290,334.596 71.142,319.167 74.069 C 313.935 75.061,307.180 76.115,297.167 77.502 C 295.837 77.686,294.487 77.874,294.167 77.921 C 278.272 80.217,274.854 80.413,240.417 81.002 C 234.917 81.097,227.717 81.228,224.417 81.295 C 221.117 81.362,216.542 81.364,214.250 81.300 C 211.958 81.235,206.221 81.108,201.500 81.017 C 196.779 80.925,191.417 80.772,189.583 80.675 C 171.251 79.712,173.176 79.943,171.818 78.541 C 166.554 73.104,162.520 63.845,160.680 52.975 C 160.220 50.258,159.784 45.307,159.197 36.130 C 159.045 33.748,158.227 32.889,157.065 33.891 L 156.583 34.307 156.602 36.528 C 156.646 41.708,157.457 50.956,158.185 54.583 C 158.898 58.133,160.200 63.186,161.019 65.583 C 162.301 69.334,165.795 75.658,168.354 78.858 C 168.965 79.622,168.691 79.728,166.400 79.612 C 161.960 79.387,161.770 79.262,160.998 76.083 C 158.533 65.933,156.121 59.638,153.269 55.917 C 150.157 51.855,144.712 48.833,140.506 48.833 C 139.473 48.833,139.041 48.569,139.237 48.057 C 139.890 46.355,140.668 38.472,140.781 32.417 C 140.833 29.635,140.937 27.666,141.038 27.542 C 141.237 27.297,141.221 27.297,145.750 27.500 M10.705 42.459 C 10.864 42.599,11.190 43.355,11.429 44.139 C 13.043 49.430,17.113 54.016,22.944 57.113 C 24.673 58.032,27.132 58.991,27.774 58.997 C 28.332 59.002,29.167 59.879,29.167 60.461 C 29.167 64.923,16.029 57.894,11.452 50.983 C 9.871 48.597,8.556 45.566,8.385 43.917 C 8.223 42.360,9.604 41.493,10.705 42.459 M113.779 45.708 C 114.865 46.914,114.215 47.857,111.833 48.533 C 106.675 49.997,100.223 51.076,93.500 51.599 C 86.561 52.139,85.138 52.194,76.417 52.267 C 67.979 52.338,65.612 52.289,54.582 51.810 C 50.233 51.622,48.944 51.675,45.583 52.183 C 43.848 52.446,41.512 53.015,40.702 53.372 C 39.050 54.101,37.681 53.520,37.894 52.179 C 38.262 49.864,45.708 48.531,55.920 48.953 C 77.903 49.860,96.110 49.117,105.750 46.918 C 110.445 45.847,111.434 45.607,111.667 45.480 C 112.208 45.184,113.427 45.316,113.779 45.708 M142.167 45.618 C 140.397 46.269,141.139 47.847,143.441 48.331 C 146.884 49.053,151.062 51.103,152.500 52.775 C 153.959 54.471,155.647 54.520,155.663 52.867 C 155.689 50.197,145.133 44.528,142.167 45.618 M342.833 48.371 C 339.728 49.397,335.061 50.670,333.236 50.990 C 332.694 51.085,331.200 51.380,329.917 51.647 C 326.296 52.400,322.829 53.079,317.167 54.145 C 313.938 54.752,310.003 55.305,304.000 55.993 C 301.327 56.299,298.438 56.663,298.000 56.748 C 296.823 56.978,287.130 57.838,281.083 58.249 C 278.975 58.393,276.313 58.589,275.167 58.687 C 274.021 58.784,264.758 58.937,254.583 59.027 C 219.812 59.335,211.008 59.365,208.750 59.181 C 207.558 59.084,204.821 58.926,202.667 58.829 C 197.779 58.611,194.816 58.383,192.902 58.078 C 188.554 57.387,188.905 57.415,188.438 57.721 C 187.528 58.317,187.735 59.503,188.839 60.021 C 190.184 60.654,194.798 61.185,202.500 61.596 C 205.112 61.735,208.338 61.919,209.667 62.005 C 212.858 62.210,229.284 62.215,229.410 62.012 C 229.466 61.920,232.260 61.853,236.211 61.849 C 260.033 61.823,271.676 61.699,274.917 61.437 C 276.750 61.288,279.525 61.091,281.083 60.998 C 284.009 60.824,286.633 60.622,289.667 60.338 C 290.629 60.247,292.354 60.091,293.500 59.991 C 294.646 59.890,296.708 59.663,298.083 59.486 C 300.683 59.152,305.044 58.634,307.917 58.318 C 308.833 58.217,310.746 57.954,312.167 57.734 C 313.587 57.514,315.050 57.290,315.417 57.237 C 316.636 57.061,321.337 56.160,328.500 54.731 C 341.909 52.054,347.808 50.116,347.418 48.515 C 347.096 47.194,346.455 47.174,342.833 48.371 M343.917 54.155 C 340.652 54.684,337.332 56.898,336.511 59.093 C 334.266 65.091,344.044 66.980,349.417 61.587 C 353.337 57.651,350.019 53.166,343.917 54.155 M301.250 61.431 C 298.657 62.049,297.520 62.620,296.159 63.987 C 291.055 69.112,299.040 74.902,305.935 71.075 C 311.885 67.773,310.229 61.618,303.333 61.406 C 302.371 61.376,301.433 61.388,301.250 61.431 M258.167 65.172 C 252.027 66.016,249.767 71.365,254.380 74.135 C 258.063 76.346,264.816 75.452,266.774 72.494 C 269.482 68.401,264.640 64.282,258.167 65.172 M215.128 65.910 C 208.473 67.367,207.190 73.227,212.917 76.007 C 219.030 78.975,227.302 74.319,224.938 69.241 C 223.707 66.597,219.113 65.038,215.128 65.910 M229.625 80.789 C 230.015 80.824,230.652 80.824,231.042 80.789 C 231.431 80.754,231.112 80.725,230.333 80.725 C 229.554 80.725,229.235 80.754,229.625 80.789 " stroke="none" fill="#040404" fill-rule="evenodd"></path></g></svg>