<?xml version="1.0" encoding="utf-8"?>
<!-- Generator: Adobe Illustrator 23.0.5, SVG Export Plug-In . SVG Version: 6.00 Build 0)  -->
<svg version="1.1" id="svg" xmlns="http://www.w3.org/2000/svg" xmlns:xlink="http://www.w3.org/1999/xlink" x="0px" y="0px"
	 viewBox="0 0 76 398.2" style="enable-background:new 0 0 76 398.2;" xml:space="preserve">
<style type="text/css">
	.st0{fill-rule:evenodd;clip-rule:evenodd;fill:#C89629;}
</style>
<g id="svgg">
	<path id="path1" class="st0" d="M70.4,72.5c-0.1-0.9-0.2-5.3-0.2-9.8c-0.2-12.1-0.7-32.9-0.9-33.9c0-0.2-0.2-1.3-0.4-2.3
		c-1.4-10.1-1.9-11.7-4-14.6c-3.4-4.5-6.8-6-13.6-6.2c-5.3-0.2-9.1,1.1-13.5,4.5c-4.6,3.6-8.9,10.9-10.6,18
		c-0.7,2.8-0.6,2.8,2.5,5.9c4.1,4.1,5.6,8,5.6,15.4c0,3.1,0,3.6-1,10.6C34,62.7,33.8,73.2,34,77.9c0.3,4.9,0.5,7.3,1.2,12.5
		c0.2,1.4,0.5,3.9,0.7,5.7c0.2,1.7,0.6,4.9,0.8,6.9c0.3,2.1,0.6,4.6,0.8,5.7c0.1,1.1,0.5,3.2,0.8,4.8c0.7,3.7,1.2,6.6,1.4,8.8
		c0.1,1,0.3,3,0.5,4.3c0.5,4.4,0.3,15.6-0.3,17.4c-1,2.9-3.2,6.1-5.3,7.7c-3.1,2.4-7.2,4.2-13.8,6c-1,0.3-2.5,0.7-3.3,0.9
		s-2.1,0.6-3,0.8c-3.7,0.9-4.2,1.2-4.4,2.7c0,0.5-0.2,1.5-0.3,2.3c-0.1,0.8-0.3,3.1-0.4,5.8c-0.1,2.5-0.2,5.7-0.3,7.1
		c-0.7,11.8-0.9,15.1-1.2,29.4c-0.3,12.1-0.1,37,0.4,46.3c0.1,1.7,0.2,5.3,0.2,8.2c0,6.3,0.4,14,1,20.8c0.6,6.1,3.2,25,4.8,34
		c0.9,5.1,2.2,12.1,3.4,17.8c1.7,8.1,3.8,15.4,7.2,24.7c1.5,4.3,4,10.7,4.4,11.7c0.1,0.2,0.5,1.2,0.9,2.2s1,2.3,1.2,2.9
		c0.3,0.6,0.8,1.8,1.2,2.6c5.7,12.6,10.7,20.8,12.7,20.3c1.1-0.2,3-5.2,4-10.4c0.1-0.6,0.6-2.9,1.1-5.2c0.5-2.2,1-5,1.2-6.1
		s0.4-2.3,0.5-2.8c0.1-0.4,0.3-1.7,0.5-2.8c0.2-1.1,0.6-3.2,0.8-4.7c0.3-1.4,0.6-3.4,0.7-4.5c0.1-1.1,0.3-2.4,0.4-3
		c0.1-0.6,0.2-1.6,0.3-2.3c0.1-0.7,0.2-2.2,0.3-3.3c0.3-2.4,0.5-4,0.9-8.3c0.2-1.7,0.4-3.8,0.5-4.6c0.2-1.9,1.4-13.4,1.7-15.4
		c0.1-0.9,0.4-4,0.7-6.9c1.4-12.5,1.8-16.3,1.9-18.3c0.2-2.5,0.3-3,0.5-2.8c0.2,0.1,0.2-0.1,0-0.3c-0.1-0.1-0.1-0.8,0-1.8
		c0.1-0.9,0.2-5,0.3-9.2c0.1-4.1,0.3-11.5,0.4-16.5c0.1-4.9,0.3-12.1,0.4-16c0.1-3.9,0.3-8.3,0.3-9.9c0.1-1.6,0.2-4.8,0.3-7
		s0.2-5.9,0.3-8.2c0.3-8,1-24.9,1.2-29.5c0.1-2.6,0.3-7.2,0.4-10.2c0.1-3,0.4-9.1,0.6-13.4c0.2-4.4,0.4-9.6,0.5-11.6
		c0.1-2,0.2-5.2,0.3-7.2c0.5-11.8,0.9-20.3,1-25.7c0.1-3.4,0.2-6.3,0.2-6.3c0.1-0.1,0.2-2.1,0.3-4.5s0.3-5.6,0.4-7.2
		c0.3-3.2,0.5-7.9,0.8-16.1c0.1-2.9,0.3-6.7,0.4-8.4C70.4,80.5,70.6,74.6,70.4,72.5 M64.4,146.6c-0.1,1.9-0.2,5.1-0.3,7.2
		c-0.1,2-0.3,7.2-0.5,11.4c-0.2,4.3-0.4,10.3-0.6,13.4c-0.5,11.6-0.8,17.3-1,23.9c-0.1,3.7-0.3,8.5-0.4,10.7
		c-0.1,2.2-0.2,5.8-0.3,8.2s-0.2,6.1-0.3,8.3c-0.1,2.2-0.2,5.4-0.3,7c0,1.6-0.2,3.5-0.2,4.1c-0.1,0.6-0.2,4.3-0.3,8.3
		c-0.7,29.4-1.2,45.4-1.4,45.6c-0.1,0.2-0.1,0.3,0,0.4c0.2,0.1,0.2,0.5-0.1,2c-0.2,1-0.4,3.4-0.6,5.1c-0.2,1.8-0.4,3.5-0.4,3.9
		c0,0.3-0.2,2.1-0.4,3.8s-0.4,3.8-0.5,4.6c-0.2,1.8-0.4,3.9-0.8,7.1c-0.1,1.4-0.4,3.8-0.6,5.3c-0.2,1.6-0.4,3.6-0.5,4.6
		s-0.2,2.4-0.3,3.1s-0.2,1.8-0.2,2.3s-0.2,1.9-0.3,3s-0.3,2.8-0.4,3.7c-0.1,0.9-0.3,3.1-0.5,4.8c-0.2,1.7-0.5,4.1-0.6,5.3
		c-0.7,6.7-1.1,9.2-1.8,12.8c-0.4,2-1.7,9.4-2.1,11.4c-0.1,0.7-0.5,2.7-0.9,4.3c-0.4,1.6-0.7,3.2-0.8,3.6c-0.3,2-1.8,7.5-2.1,7.9
		s-0.4,0.2-1.3-1.1c-4.1-6.1-9.4-17.4-14-29.6c-0.7-1.7-1.4-3.7-1.6-4.3c-0.7-1.8-2.9-8.1-3.7-11c-2.6-8.5-3.4-12.2-6.4-27.7
		c-1-5.2-2-12-3.4-22c-0.2-1.3-0.4-2.7-0.4-3c-2.3-15.9-2.5-19.3-3.1-53.7c-0.1-5.5-0.2-12.7-0.3-16c-0.1-3.3-0.1-7.9,0-10.2
		s0.2-8,0.3-12.8c0.1-4.7,0.2-10.1,0.3-11.9c1-18.3,0.7-16.4,2.1-17.8c5.4-5.3,14.7-9.3,25.6-11.1c2.7-0.5,7.7-0.9,16.8-1.5
		c2.4-0.2,3.2-1,2.2-2.1l-0.4-0.5h-2.2c-5.2,0-14.4,0.9-18.1,1.6c-3.5,0.7-8.6,2-11,2.8c-3.8,1.3-10.1,4.8-13.3,7.3
		c-0.8,0.6-0.9,0.3-0.8-2c0.2-4.4,0.3-4.6,3.5-5.4c10.2-2.5,16.4-4.9,20.2-7.7c4.1-3.1,7.1-8.6,7.1-12.8c0-1,0.3-1.5,0.8-1.3
		c1.7,0.7,9.6,1.4,15.6,1.5c2.8,0.1,4.8,0.2,4.9,0.3C64.6,142,64.6,142,64.4,146.6 M49.4,11.5c-0.1,0.2-0.9,0.5-1.7,0.7
		c-5.3,1.6-9.9,5.7-13,11.5c-0.9,1.7-1.9,4.2-1.9,4.8c0,0.6-0.9,1.4-1.5,1.4c-4.5,0,2.6-13.1,9.5-17.7c2.4-1.6,5.4-2.9,7.1-3.1
		C49.5,9,50.4,10.4,49.4,11.5 M46.2,114.6c-1.2,1.1-2.1,0.4-2.8-1.9c-1.5-5.2-2.5-11.6-3.1-18.3c-0.5-6.9-0.6-8.4-0.7-17.1
		c-0.1-8.4,0-10.8,0.5-21.8c0.2-4.3,0.1-5.6-0.4-9c-0.3-1.7-0.8-4.1-1.2-4.9c-0.7-1.7-0.1-3,1.2-2.8c2.3,0.4,3.6,7.8,3.2,18
		c-0.9,22-0.2,40.2,2,49.8c1.1,4.7,1.3,5.7,1.4,5.9C46.7,113,46.6,114.2,46.2,114.6 M46.3,143c-0.7-1.8-2.2-1-2.7,1.3
		c-0.7,3.4-2.8,7.6-4.4,9.1c-1.7,1.5-1.7,3.1-0.1,3.2C41.7,156.5,47.4,145.9,46.3,143 M43.5,343.6c-1-3.1-2.3-7.8-2.6-9.6
		c-0.1-0.5-0.4-2-0.7-3.3c-0.8-3.6-1.4-7.1-2.5-12.8c-0.6-3.2-1.2-7.2-1.8-13.2c-0.3-2.7-0.7-5.6-0.8-6c-0.2-1.2-1.1-10.9-1.5-16.9
		c-0.1-2.1-0.3-4.8-0.4-5.9c-0.1-1.1-0.3-10.4-0.3-20.6c-0.3-34.8-0.3-43.6-0.2-45.8c0.1-1.2,0.3-3.9,0.4-6.1
		c0.2-4.9,0.4-7.9,0.8-9.8c0.7-4.3,0.7-4,0.4-4.5c-0.6-0.9-1.8-0.7-2.3,0.4c-0.6,1.3-1.2,6-1.6,13.7c-0.1,2.6-0.3,5.8-0.4,7.2
		c-0.2,3.2-0.2,19.6,0,19.7c0.1,0.1,0.2,2.8,0.2,6.8c0,23.8,0.1,35.5,0.4,38.7c0.1,1.8,0.3,4.6,0.4,6.2c0.2,2.9,0.4,5.5,0.7,8.6
		c0.1,1,0.2,2.7,0.3,3.8c0.1,1.1,0.3,3.2,0.5,4.6c0.3,2.6,0.9,7,1.2,9.8c0.1,0.9,0.4,2.8,0.6,4.3c0.2,1.4,0.4,2.9,0.5,3.3
		c0.2,1.2,1.1,5.9,2.5,13.1c2.7,13.4,4.6,19.3,6.2,18.9C44.7,347.9,44.7,347.3,43.5,343.6 M37.7,344.7c-0.5-3.3-2.7-6.6-4.9-7.4
		c-6-2.2-7.9,7.5-2.5,12.9C34.2,354.1,38.7,350.8,37.7,344.7 M30.5,302.1c-0.6-2.6-1.2-3.7-2.6-5.1c-5.1-5.1-10.9,2.9-7.1,9.8
		c3.3,6,9.5,4.3,9.7-2.6C30.5,303.2,30.5,302.2,30.5,302.1 M26.7,259c-0.8-6.1-6.2-8.4-9-3.8c-2.2,3.7-1.3,10.4,1.6,12.4
		C23.5,270.3,27.6,265.4,26.7,259 M26,215.9c-1.5-6.7-7.3-7.9-10.1-2.2c-3,6.1,1.7,14.4,6.8,12C25.3,224.5,26.9,219.9,26,215.9
		 M11.1,230.4c0,0.4,0,1,0,1.4s0.1,0.1,0.1-0.7C11.2,230.4,11.1,230,11.1,230.4"/>
</g>
</svg>
